<svg width="82" height="35" viewBox="0 0 82 35" fill="none" xmlns="http://www.w3.org/2000/svg">
<g id="Frame" clip-path="url(#clip0_1785_990)">
<g id="Group">
<path id="Vector" d="M19.1356 9.05633L19.0439 4.83042C19.0439 4.83042 17.0718 1.66098 13.036 0.926043C9.27528 0.558572 4.59735 0.926043 1.7539 5.8869C1.22741 6.67237 0.194595 10.3884 1.57046 13.5119C2.66839 16.0043 8.10396 19.7433 10.4585 21.08C10.5493 21.1314 10.6365 21.192 10.7163 21.26C12.2086 22.5269 11.9325 24.6224 10.8804 25.5006C9.77976 26.4193 4.96425 27.2002 0.742188 24.0023L0.744939 29.6806C0.744939 29.6806 4.13781 33.8009 9.45872 33.5391C15.053 33.2635 18.7834 30.8088 19.841 25.2443C19.8914 24.9788 19.9153 24.7087 19.9153 24.4387V21.9904C19.9153 21.1562 19.6814 20.3358 19.2227 19.6395C18.6816 18.8191 17.7203 17.747 16.017 16.5886C12.1866 13.9832 8.29658 12.4417 9.09183 8.45827C9.367 7.08026 11.2868 6.55569 11.351 6.54743C13.3763 6.28285 15.4318 6.7284 17.192 7.76651C17.7597 8.10183 18.411 8.52442 19.1356 9.05633Z" fill="white" style="fill:white;fill:white;fill-opacity:1;"/>
</g>
<g id="Group_2">
<path id="Vector_2" d="M27.9616 11.0883H21.8161C21.8161 11.0883 20.165 11.0883 20.165 12.4663C20.165 13.8443 20.165 26.2464 20.165 26.2464C20.165 26.2464 20.4402 31.2073 26.8609 31.4829C33.2816 31.7585 43.6923 31.4829 43.6923 31.4829V10.7667H36.813C36.813 10.7667 35.804 10.583 35.804 13.0634C35.804 15.5438 35.804 28.1297 35.804 28.1297H30.3923C30.3923 28.1297 28.0992 28.0378 28.0992 25.6493C28.0992 23.2607 28.0992 11.0883 28.0992 11.0883H27.9616Z" fill="white" style="fill:white;fill:white;fill-opacity:1;"/>
</g>
<g id="Group_3">
<path id="Vector_3" d="M48.5786 11.9032V32.0222C48.5786 32.0222 54.7241 30.8279 56.1 31.2872C56.1 30.0011 56.1 16.6803 56.1 16.6803C56.1 16.6803 59.0352 16.0372 61.0531 16.4047C61.2365 15.486 61.6034 12.8218 62.1538 11.7194C60.8696 10.8926 52.3393 10.617 48.5786 11.9032Z" fill="white" style="fill:white;fill:white;fill-opacity:1;"/>
</g>
<g id="Group_4">
<path id="Vector_4" d="M71.6944 16.7725H76.0054C76.0054 16.7725 78.9406 16.2213 78.3902 12.3628H71.7861C71.7861 12.3628 71.5109 9.69868 72.6116 8.32066C73.7123 6.94265 76.3723 6.20771 77.6564 6.75891C78.9406 7.31012 80.775 8.68813 80.8668 8.68813C80.9585 8.68813 81.5547 5.33496 80.9585 4.55409C80.6375 4.04882 78.3444 0.465977 72.2447 1.61432C69.4939 2.13246 67.6438 3.753 66.4111 5.23299C65.0746 6.837 64.3564 8.86636 64.3564 10.9545V32.0225C64.3564 32.0225 69.1261 32.8493 71.6944 34.9623V16.7725Z" fill="white" style="fill:white;fill:white;fill-opacity:1;"/>
</g>
</g>
<defs>
<clipPath id="clip0_1785_990">
<rect width="80.4768" height="34.1417" fill="white" style="fill:white;fill:white;fill-opacity:1;" transform="translate(0.742188 0.821289)"/>
</clipPath>
</defs>
</svg>
