<svg width="68" height="74" viewBox="0 0 68 74" fill="none" xmlns="http://www.w3.org/2000/svg">
<g id="UNILEVER">
<path id="Vector" d="M42.8481 70.024C42.661 70.342 42.5068 70.6862 42.28 70.9722C41.2087 72.3227 39.928 73.3755 38.1335 73.5268C37.6313 73.5694 37.0021 73.5529 36.6221 73.2883C35.9415 72.8142 35.4325 72.8191 34.7054 73.1933C33.5207 73.8031 32.336 73.6528 31.3966 72.6339C30.8295 72.0192 30.3602 72.0706 29.7184 72.535C29.1784 72.9257 28.5425 73.2388 27.9026 73.4221C26.5075 73.8205 25.7979 73.5006 24.9893 72.28C24.8526 72.0735 24.715 71.8661 24.5918 71.6518C24.2467 71.0498 23.9084 71.1322 23.5535 71.644C23.254 72.0764 22.9699 72.5243 22.6306 72.9238C21.8986 73.7866 21.2394 73.7682 20.6238 72.8152C20.2234 72.1957 19.9481 71.4938 19.6184 70.8287C19.4943 70.5796 19.3964 70.3149 19.2481 70.0812C18.7236 69.2533 18.2612 69.1341 17.5059 69.7526C16.5248 70.5573 15.6106 71.4434 14.6566 72.281C14.2388 72.6484 13.819 73.0275 13.3498 73.3193C12.6935 73.7265 12.2746 73.4589 12.2931 72.6862C12.2989 72.441 12.3444 72.1918 12.4075 71.9543C12.772 70.5776 13.1443 69.2029 13.5233 67.8301C13.5883 67.5936 13.6484 67.3231 13.8025 67.1505C13.9945 66.9363 14.2834 66.6823 14.5277 66.6842C14.6925 66.6861 14.9077 67.0807 15.0047 67.3357C15.2102 67.8737 15.3537 68.4351 15.5224 68.9877C15.663 69.0769 15.8026 69.167 15.9431 69.2562C16.1157 68.9402 16.2495 68.5931 16.4676 68.3129C17.0561 67.5567 17.6339 66.7811 18.3058 66.1035C18.9049 65.4985 19.4003 65.6129 19.7551 66.3856C20.0634 67.0584 20.2728 67.7768 20.52 68.4777C20.6742 68.915 20.7808 69.3735 20.9767 69.7914C21.2336 70.3391 21.505 71.1719 22.2137 70.9092C22.7343 70.7163 23.1308 70.0017 23.4198 69.4365C23.6321 69.0206 23.5351 68.4564 23.6612 67.9814C23.7862 67.5102 23.9471 67.0196 24.2167 66.6222C24.7353 65.8601 25.5904 65.9484 25.8124 66.8306C25.9927 67.5509 25.9763 68.3595 25.8696 69.103C25.7058 70.2412 26.0063 71.1506 26.8653 71.5529C27.7698 71.9775 29.1135 71.6334 29.6651 70.7347C29.8338 70.4593 29.7902 69.9775 29.6961 69.6304C29.0068 67.0865 28.9109 64.5484 29.7853 62.0385C30.0258 61.3501 30.4 60.6783 30.8411 60.0966C31.574 59.1271 32.8712 59.131 33.4868 60.1703C33.9085 60.8838 34.1654 61.7728 34.2314 62.6046C34.4185 64.9731 33.8853 67.2145 32.7442 69.3134C32.0423 70.6057 32.526 71.6091 33.9667 71.9795C34.8101 72.1957 35.1776 71.9106 35.133 71.0294C35.0574 69.516 35.4258 68.1394 36.3642 66.9411C37.2678 65.7874 38.3177 65.4248 39.1456 65.9464C40.1539 66.5824 40.6571 68.3653 39.9707 69.4317C39.4646 70.2179 38.7103 70.8452 38.0249 71.5888C38.6182 72.1007 39.3124 71.963 39.9871 71.6198C41.1069 71.0498 41.6556 69.9882 42.1627 68.9208C42.4806 68.2509 42.6629 67.5141 43.0071 66.8597C43.2155 66.4632 43.6159 66.1684 43.93 65.8282C44.1859 66.1878 44.5379 66.5136 44.6775 66.913C45.0042 67.8466 45.2272 68.8161 45.4947 69.77C45.5452 69.9494 45.5616 70.1578 45.6673 70.2965C46.0357 70.7822 46.4361 71.2446 46.8249 71.7148C47.1613 71.1671 47.6218 70.6561 47.7972 70.0609C47.9446 69.5626 47.6964 68.9615 47.7342 68.4137C47.7905 67.5994 47.8263 66.7472 48.1094 66.0017C48.2403 65.6566 48.9238 65.3929 49.3765 65.3599C49.5588 65.3463 49.9815 66.0531 49.9737 66.4253C49.9253 68.7259 49.234 70.8345 47.6353 72.5311C46.0939 74.1686 44.5001 73.7682 43.7952 71.6499C43.6421 71.1894 43.4666 70.7366 43.3018 70.28C43.1496 70.1956 42.9993 70.1094 42.8481 70.024ZM31.5808 68.5989C31.8581 68.1103 32.0898 67.8708 32.1305 67.6023C32.3719 66.0327 32.6094 64.4593 32.7471 62.878C32.7742 62.563 32.3641 62.2091 32.1557 61.8737C31.8959 62.1732 31.4344 62.4582 31.4102 62.7762C31.2841 64.3943 31.2609 66.0211 31.2299 67.6459C31.226 67.866 31.3869 68.0899 31.5808 68.5989ZM36.5387 69.3318C36.816 69.7448 37.007 70.3353 37.3928 70.5224C37.8136 70.725 38.5707 69.6304 38.4641 68.8461C38.4088 68.4409 38.0996 67.899 37.7583 67.7458C37.291 67.5364 36.7384 68.3779 36.5387 69.3318Z" fill="white" style="fill:white;fill:white;fill-opacity:1;"/>
<path id="Vector_2" d="M24.7262 4.90211C24.5566 4.59866 24.4228 4.26613 24.2085 3.99759C23.9196 3.63597 23.5716 3.32283 23.2449 2.99224C21.9196 1.65049 22.0146 1.21907 23.8702 0.737238C24.8212 0.490021 25.815 0.395013 26.7951 0.282553C27.0889 0.248621 27.403 0.388226 27.7074 0.448334C27.7277 0.558854 27.7481 0.668405 27.7675 0.778925C27.1179 1.06977 26.4732 1.37225 25.8188 1.65049C24.5954 2.17109 24.5226 2.43964 25.4175 3.41106C26.068 4.11683 26.8087 4.74796 27.3913 5.50319C27.6928 5.89292 27.7384 6.48042 27.8993 6.97873C27.4059 7.01557 26.894 7.15227 26.4238 7.06598C25.6986 6.93317 25.0045 6.6365 24.29 6.43291C23.9177 6.32627 23.5309 6.26907 22.9308 6.14304C23.1043 6.6908 23.1964 7.0592 23.336 7.40918C23.6453 8.18476 24.0321 8.93513 24.2803 9.72914C24.4053 10.1295 24.2977 10.6036 24.2948 11.0437C23.8479 10.9177 23.3409 10.8838 22.9666 10.6443C22.3452 10.2468 21.8217 9.70005 21.2342 9.24537C20.4101 8.60745 20.222 8.70246 19.971 9.72429C19.8808 10.0908 19.6549 10.4233 19.4911 10.7713C19.2089 10.5571 18.9249 10.3457 18.6457 10.1276C18.4789 9.99768 18.3209 9.85614 17.9961 9.58275C17.778 10.2139 17.586 10.7384 17.4164 11.2706C17.2196 11.8882 17.078 12.5261 16.8386 13.1252C16.7542 13.3366 16.4285 13.61 16.254 13.5838C16.0552 13.5537 15.7974 13.2445 15.7469 13.0157C15.5938 12.3235 15.5404 11.609 15.4222 10.908C15.3727 10.6162 15.2593 10.3351 15.1265 9.88037C14.7542 10.1761 14.5264 10.4233 14.2462 10.5639C13.808 10.7839 13.3339 10.9323 12.8744 11.1106C12.7813 10.6501 12.632 10.1935 12.6097 9.73011C12.5835 9.18817 12.6679 8.64041 12.7231 7.8183C11.9456 8.16537 11.3746 8.4058 10.8162 8.67144C10.0348 9.04372 9.27665 9.46835 8.47877 9.79797C8.249 9.89298 7.9155 9.73689 7.62951 9.6952C7.67895 9.43635 7.64696 9.11352 7.79238 8.93029C8.57863 7.93657 9.41335 6.98067 10.2209 6.00441C10.4885 5.6806 10.727 5.33159 11.1468 4.76929C9.65766 4.65005 8.40509 4.55019 6.97705 4.43579C7.58879 3.04071 9.0052 2.87978 9.8341 1.85408C8.89274 1.52251 8.0299 1.21907 7.16707 0.915622C7.1661 0.810918 7.16513 0.705245 7.16416 0.600542C7.47536 0.477418 7.79238 0.237957 8.09777 0.25153C9.35615 0.308729 10.6145 0.416341 11.8661 0.568549C12.1201 0.599572 12.5525 0.928225 12.5331 1.06977C12.4953 1.35092 12.2423 1.64855 12.0028 1.84826C11.5229 2.24865 10.9926 2.58894 10.4827 2.95346C10.5059 3.06204 10.5292 3.17062 10.5525 3.27921C11.1952 3.38488 11.8458 3.4605 12.4788 3.60786C12.8133 3.68542 13.1197 3.88901 13.4376 4.0354C13.2806 4.35533 13.1798 4.7247 12.9539 4.98549C12.4779 5.53518 11.9369 6.02864 11.4221 6.5444C11.4812 6.63651 11.5413 6.72861 11.6005 6.82071C12.1298 6.56864 12.6466 6.28362 13.1933 6.07906C13.4881 5.96854 13.936 5.85995 14.1289 6.00247C14.3063 6.13335 14.2869 6.60548 14.2636 6.92056C14.2229 7.45087 14.1095 7.97535 14.0271 8.50275C14.1017 8.53086 14.1764 8.55801 14.252 8.58612C14.76 7.97147 15.268 7.35586 15.7751 6.74121C15.8856 6.75963 15.9971 6.77805 16.1076 6.79744C16.2297 7.68645 16.3519 8.57546 16.474 9.4635C16.5642 9.47416 16.6553 9.48386 16.7455 9.49452C16.9035 8.9235 17.0402 8.34569 17.2302 7.7863C17.3146 7.53909 17.5075 7.32871 17.652 7.10088C17.874 7.28412 18.1163 7.44699 18.3112 7.65543C18.5235 7.88325 18.6903 8.15277 18.8764 8.40386C18.953 8.37866 19.0296 8.35345 19.1071 8.32824C19.1275 7.91331 19.142 7.4974 19.1711 7.08246C19.2225 6.32143 19.4688 6.17503 20.0921 6.63069C20.7543 7.11446 21.3515 7.68645 22.1523 8.11108C22.0069 7.72232 21.8682 7.33162 21.7131 6.94577C21.5977 6.6588 21.4019 6.39026 21.3495 6.09554C21.2565 5.57008 21.2458 5.03008 21.2012 4.4959C21.7267 4.53371 22.2638 4.51917 22.7756 4.62387C23.3816 4.74796 23.9662 4.97385 24.5605 5.15611C24.6147 5.06983 24.67 4.98646 24.7262 4.90211Z" fill="white" style="fill:white;fill:white;fill-opacity:1;"/>
<path id="Vector_3" d="M33.0344 45.8164C33.1973 45.8494 33.3631 45.8309 33.427 45.9037C34.6573 47.3007 36.4033 46.9313 37.9506 47.2328C38.1193 47.2658 38.3801 47.2958 38.4683 47.2028C39.1712 46.4611 39.433 46.9139 39.6811 47.5915C39.7723 47.8397 40.0815 48.0288 40.1184 48.2711C40.163 48.56 40.0883 48.9139 39.9478 49.1756C39.749 49.545 39.3447 49.8194 39.1993 50.2004C38.8765 51.0477 38.6739 52.0211 37.6336 52.2053C36.5129 52.404 35.6859 51.7564 35.0218 50.9149C34.8318 50.6735 34.6854 50.3952 34.5371 50.1238C33.9932 49.1272 33.6626 49.0448 32.8754 49.8426C31.6219 51.1127 30.1095 51.8068 28.3557 51.9862C27.838 52.0395 27.3116 51.9939 26.6708 51.9939C27.6461 52.69 29.6044 52.7453 31.0004 52.0996C31.6645 51.7923 32.2598 51.3269 32.8599 50.8955C33.3505 50.5426 33.7363 50.4631 34.0562 51.0933C34.9501 52.8587 36.4954 53.3289 38.3316 53.2523C38.6264 53.2397 38.9269 53.39 39.2255 53.4646C39.0035 53.7254 38.8338 54.0948 38.5527 54.2305C37.0558 54.9498 35.6898 54.721 34.5003 53.5819C32.3296 54.7909 30.0038 55.0245 27.6276 54.2557C26.789 53.9842 26.0454 53.4297 25.2301 53.0681C24.4012 52.7007 23.5597 52.2557 22.6823 52.1258C21.4065 51.9367 20.4128 51.3938 19.5703 50.4844C20.471 50.2789 21.4908 50.2886 22.1792 49.8174C22.819 49.3783 23.1079 48.4253 23.6101 47.6012C24.3537 47.8707 24.9053 48.6609 25.2156 49.5605C25.4638 50.2808 25.8273 50.6434 26.5767 50.6793C27.395 50.7181 28.0125 50.4427 28.4381 49.7127C28.5729 49.481 28.8162 49.2319 29.0605 49.1592C31.5065 48.4262 31.904 48.1112 33.0344 45.8164ZM37.9594 49.3734C37.4717 48.9711 37.207 48.5843 36.9715 48.6017C36.701 48.6221 36.4567 48.9982 36.2007 49.2202C36.4198 49.4645 36.6069 49.8533 36.8677 49.9124C37.1023 49.9658 37.4194 49.6584 37.9594 49.3734Z" fill="white" style="fill:white;fill:white;fill-opacity:1;"/>
<path id="Vector_4" d="M58.1344 32.1387C57.7244 31.5987 57.3918 31.1605 57.0593 30.7232C56.3933 31.2506 55.7272 31.778 55.0185 32.3394C54.8586 31.9244 54.6337 31.3369 54.4058 30.7504C53.6235 28.7426 52.4194 27.2496 50.1518 26.7494C48.4368 26.3713 48.1372 25.6723 48.5599 23.9495C48.6753 23.4774 48.7431 22.9926 48.842 22.4633C49.6457 22.6737 50.0577 23.2515 50.2526 23.9447C50.5638 25.0479 51.2977 25.7682 52.1024 26.5341C53.2037 27.5831 54.1189 28.8279 55.0263 29.8856C54.6938 27.204 52.2012 25.5869 50.779 23.2777C52.1266 23.1284 53.1843 23.6276 53.7127 24.7677C54.401 26.2501 54.9759 27.7838 55.639 29.3912C56.0239 28.6844 56.3845 28.0232 56.7917 27.2767C56.3312 26.9791 55.8891 26.7154 55.4713 26.4168C54.8392 25.9641 54.3176 25.4115 54.5241 24.5574C54.7665 23.5569 55.4606 22.8976 56.3758 22.4933C56.465 22.4536 56.878 22.8065 56.8829 22.9849C56.8964 23.4405 56.7374 23.8981 56.6986 24.3596C56.6579 24.8482 56.593 25.3601 56.6948 25.8274C56.7917 26.2695 57.1272 26.5167 57.5877 26.0979C58.9876 24.823 58.5697 22.2558 56.7937 21.5966C56.3293 21.424 55.6923 21.4851 55.2047 21.648C53.8649 22.0968 52.5377 22.4488 51.1125 22.1521C48.4814 21.6043 46.4901 18.7502 46.8323 16.1617C48.1886 16.1617 49.5245 16.1869 50.8585 16.1559C52.6365 16.1132 53.9521 16.9353 54.9468 18.3188C55.6749 19.3319 56.4999 20.1821 57.5469 20.9053C59.4762 22.2384 59.7855 24.3121 58.5125 26.283C58.1267 26.8802 57.6546 27.4222 57.2677 28.0194C56.9236 28.5506 56.6434 29.1236 56.3351 29.6781C56.4107 29.7382 56.4863 29.7984 56.562 29.8585C56.9362 29.4823 57.2697 29.0451 57.6991 28.7474C58.0443 28.508 58.6046 28.221 58.8877 28.3509C59.1708 28.4808 59.3637 29.1052 59.357 29.5085C59.3395 30.5691 58.8131 31.4339 58.1344 32.1387ZM52.3253 20.9887C53.2105 20.6261 53.987 20.3081 54.6812 20.0241C54.3583 19.5461 53.9608 18.9586 53.5924 18.4128C53.415 18.6193 53.1959 18.8733 52.9778 19.1273C52.6685 18.8549 52.3331 18.6057 52.0587 18.3023C51.8726 18.0958 51.7708 17.8137 51.5565 17.4307C51.4674 17.7061 51.4421 17.7865 51.415 17.866C51.3229 18.1404 51.2308 18.4148 51.1397 18.6891C50.8663 18.5233 50.5764 18.3789 50.3234 18.1869C50.0878 18.0085 49.89 17.7798 49.6748 17.5733C50.1663 18.6397 49.447 18.883 48.7955 19.2912C49.4712 19.2912 50.146 19.2912 50.9671 19.2912C50.6685 19.7769 50.4921 20.0638 50.3156 20.3518C50.8391 20.2897 51.2163 20.0357 51.6312 19.8796C52.0161 19.7352 52.4407 19.6945 52.8469 19.6082C52.8828 19.6925 52.9196 19.7769 52.9555 19.8612C52.7548 20.2199 52.5551 20.5777 52.3253 20.9887Z" fill="white" style="fill:white;fill:white;fill-opacity:1;"/>
<path id="Vector_5" d="M38.0065 9.27039C38.3459 8.54329 38.6852 7.81715 39.0536 7.02702C38.531 6.87579 38.1132 6.7546 37.4976 6.57622C37.9154 6.21557 38.1743 5.97514 38.4515 5.75604C39.1544 5.2015 39.1486 5.0173 38.4069 4.56746C38.183 4.43173 37.9707 4.27565 37.7419 4.1215C38.1578 3.65809 38.7773 3.27515 38.7811 2.88542C38.786 2.41425 38.2586 1.94503 37.9862 1.46126C37.8757 1.26542 37.8282 1.03469 37.6556 0.54801C38.6037 0.966824 39.3105 1.27803 40.0802 1.61831C40.2247 1.10643 40.3449 0.679858 40.5262 0.0351562C41.4937 1.46998 42.5311 0.575155 43.5597 0.395802C45.5268 0.0526068 47.3125 0.470451 48.5418 2.1205C49.7595 3.75407 49.7925 5.60383 48.8521 7.38282C47.9427 9.10461 46.3692 9.90637 44.47 9.77452C43.4889 9.70666 42.5369 9.22483 41.4346 8.88842C41.2679 9.03869 40.9605 9.31596 40.5669 9.67176C40.3973 9.15115 40.2596 8.7304 40.0735 8.15937C39.4123 8.61794 38.819 9.03093 38.2247 9.44296C38.152 9.38576 38.0792 9.32856 38.0065 9.27039ZM44.947 4.84279C45.4066 5.38958 45.8205 5.88207 46.2335 6.37457C46.1831 6.44728 46.1327 6.52096 46.0823 6.59367C45.4637 6.56458 44.8443 6.5355 44.1705 6.50448C44.2306 7.02993 44.2781 7.43808 44.3372 7.95675C43.6169 7.74056 43.0207 7.56121 42.2238 7.32175C42.915 8.42113 44.1617 8.75754 45.4124 8.3872C46.7851 7.98002 47.6422 6.60433 47.5995 4.87769C47.5559 3.10549 46.7153 1.81609 45.3872 1.48259C44.0978 1.15878 43.0081 1.47871 42.4448 2.53641C43.2592 2.40941 43.9329 2.3047 44.7318 2.18061C44.5796 2.65177 44.4807 2.95716 44.3605 3.33041C45.1031 3.46129 45.7808 3.58053 46.4594 3.69978C46.4623 3.80545 46.4642 3.91112 46.4672 4.0168C45.9718 4.28728 45.4764 4.55583 44.947 4.84279ZM42.5786 5.93636C42.5544 5.82778 42.4991 5.57378 42.4458 5.33432C42.7308 5.19762 42.9509 5.09098 43.3736 4.88836C42.4526 4.77881 42.3566 4.35515 42.5233 4.03425C42.0308 3.72402 41.6314 3.47195 41.3493 3.29357C40.9751 3.5592 40.5601 3.8549 40.1297 4.16028C40.2257 4.27953 40.4128 4.50929 40.6164 4.76136C40.4099 5.04541 40.2247 5.30039 40.1762 5.36728C40.5815 5.80161 40.9043 6.14868 41.1758 6.43952C41.55 6.30573 42.0153 6.13801 42.5786 5.93636Z" fill="white" style="fill:white;fill:white;fill-opacity:1;"/>
<path id="Vector_6" d="M12.638 28.4956C13.0888 27.5368 13.5076 26.5615 14.005 25.627C14.2231 25.2169 14.6012 24.8911 14.9066 24.5266C14.9822 25.0094 15.244 25.5581 15.1005 25.9643C14.4829 27.7104 13.7617 29.4205 13.0462 31.1297C12.7476 31.8423 12.3433 32.5102 12.034 33.2199C11.5454 34.3435 11.2779 35.473 12.3889 36.585C11.3816 36.7944 10.733 36.425 10.1688 35.8181C9.53376 36.8457 9.5929 37.853 10.3675 38.7168C10.8426 39.2462 11.3971 39.7028 11.8712 40.2331C12.672 41.1279 12.7049 41.9394 12.0476 43.0145C8.71165 41.6776 7.50465 37.8773 9.39416 34.5588C9.89829 33.6726 10.5304 32.8602 11.0791 31.9984C11.7752 30.9029 11.5125 29.8771 10.3568 29.3052C10.1979 29.2266 9.72475 29.4205 9.66367 29.5863C9.55703 29.8752 9.53764 30.3192 9.69373 30.5606C10.2996 31.4942 9.89247 32.2242 9.30594 32.9106C9.08393 33.1705 8.66414 33.5224 8.4431 33.4584C8.13481 33.3692 7.82748 32.9669 7.69951 32.6305C7.50368 32.1186 7.36601 31.5456 7.3728 31.0017C7.39122 29.4903 7.44454 27.9741 7.59772 26.4714C7.65395 25.9197 8.02816 25.4011 8.25793 24.8679C8.41111 24.896 8.56429 24.9241 8.71746 24.9522C8.71746 25.8742 8.71746 26.7971 8.71746 27.7191C8.85319 27.7404 8.98892 27.7617 9.12367 27.7831C9.24971 27.4098 9.39901 27.0434 9.49595 26.6624C9.6947 25.8839 9.82848 25.086 10.0728 24.323C10.1465 24.0932 10.4965 23.9517 10.7204 23.7694C10.8387 24.0244 11.0694 24.2852 11.0549 24.5315C11.0161 25.2081 10.8619 25.8771 10.7766 26.5518C10.7291 26.9251 10.7291 27.3042 10.7078 27.6813C10.798 27.7016 10.8891 27.722 10.9793 27.7433C11.1615 27.2751 11.3515 26.8097 11.526 26.3386C11.8266 25.5261 12.0815 24.6943 12.4344 23.9071C12.544 23.6638 12.9114 23.5368 13.1606 23.3564C13.2459 23.6609 13.4601 23.9963 13.3952 24.2639C13.148 25.2847 12.8067 26.2823 12.511 27.2925C12.4102 27.6377 12.3414 27.9925 12.258 28.3434C12.384 28.3929 12.511 28.4443 12.638 28.4956Z" fill="white" style="fill:white;fill:white;fill-opacity:1;"/>
<path id="Vector_7" d="M40.3121 42.5907C39.9476 42.7003 39.488 42.8515 39.0208 42.9756C38.0435 43.2354 37.0847 43.1821 36.2926 42.517C35.8709 42.1632 35.3125 41.6474 36.2655 41.1888C36.3198 41.1627 36.4041 41.1297 36.4129 41.088C36.7425 39.4981 37.426 40.4869 38.0522 40.8466C39.7275 41.8093 41.492 41.6978 43.2768 41.2325C43.5724 41.1549 43.8604 41.0512 44.1541 40.9591C44.4537 42.2175 43.4474 44.202 42.0746 45.1133C40.1298 46.4037 37.4773 46.4308 35.5122 45.028C33.519 43.6057 32.7153 41.5766 33.1428 39.1743C33.5762 36.7351 35.0391 35.0957 37.4599 34.4704C38.2432 34.2677 39.1061 34.3211 39.9282 34.3598C40.1958 34.3724 40.4478 34.7108 40.7067 34.9008C40.4536 35.0773 40.2074 35.2634 39.9466 35.4243C39.8254 35.499 39.6751 35.5261 39.4008 35.624C39.6228 35.7394 39.7411 35.7675 39.8089 35.8422C40.0358 36.0942 40.2433 36.3618 40.4585 36.6236C40.1298 36.7952 39.8177 37.054 39.4687 37.1199C38.919 37.2237 38.345 37.1985 37.6955 37.2324C38.3198 38.3744 38.2316 38.6381 37.1371 38.9513C35.9999 39.277 35.0149 39.7114 34.9334 41.0977C34.852 42.4685 35.5607 43.3847 36.6717 44.043C38.0571 44.8641 39.9854 44.8195 40.8831 43.9994C40.7125 43.5834 40.5486 43.1782 40.3121 42.5907Z" fill="white" style="fill:white;fill:white;fill-opacity:1;"/>
<path id="Vector_8" d="M58.2804 70.1286C57.7782 70.7898 57.3769 71.3754 56.9164 71.9115C56.165 72.786 55.2081 73.3308 54.0632 73.5286C52.2289 73.8456 50.7873 72.8403 50.5411 70.9905C50.3133 69.2871 50.8203 67.7864 52.1078 66.6279C52.8339 65.9744 53.7249 65.6787 54.6904 66.0733C55.6047 66.4475 56.0952 67.195 56.1631 68.1616C56.2348 69.1931 55.7162 69.9464 54.8262 70.4243C54.2086 70.7569 53.561 71.0312 52.9153 71.3376C53.4951 72.1403 54.5819 72.3352 55.4408 71.5751C56.2513 70.8587 56.8863 69.9105 57.469 68.9827C57.8383 68.3942 57.9237 67.6332 58.231 66.9963C58.3871 66.6725 58.7526 66.4504 59.023 66.1819C59.2228 66.4883 59.5243 66.7704 59.6028 67.1048C59.8151 68.0065 59.9237 68.9313 60.0943 69.8436C60.1253 70.0084 60.2552 70.1548 60.4394 70.4941C60.6605 70.0811 60.7943 69.8 60.9562 69.5373C61.7114 68.3089 62.3454 66.9749 63.2752 65.8949C64.0856 64.9536 65.3518 64.717 66.5084 65.3462C66.9301 65.576 67.2675 66.2052 67.3615 66.7054C67.4197 67.0166 67.0309 67.5779 66.6974 67.7583C66.139 68.0588 65.536 67.8766 65.156 67.3065C64.7682 66.7238 64.2795 66.8256 63.9034 67.2057C63.4099 67.7049 62.9417 68.2672 62.6159 68.8838C61.9809 70.087 61.4904 71.3676 60.8583 72.5727C60.6518 72.9663 60.1903 73.2252 59.8452 73.5461C59.5407 73.1893 59.1277 72.8771 58.9561 72.4651C58.6643 71.7632 58.5209 70.9963 58.2804 70.1286ZM52.2677 70.2033C53.37 70.1762 53.9789 69.6856 54.1883 68.9284C54.2881 68.5668 53.8819 68.0666 53.7055 67.6293C53.308 67.8252 52.6943 67.9279 52.5605 68.2372C52.3152 68.8034 52.355 69.4917 52.2677 70.2033Z" fill="white" style="fill:white;fill:white;fill-opacity:1;"/>
<path id="Vector_9" d="M11.8934 65.1668C11.7703 67.4606 11.5909 69.6943 10.1939 71.6439C8.84441 73.5286 6.95393 73.9435 4.84628 73.5635C2.91121 73.2144 1.79146 71.9066 1.31254 70.0404C0.60773 67.2948 1.06338 64.6336 1.97178 62.0209C2.07552 61.7213 2.32177 61.3839 2.59322 61.2511C2.98295 61.0601 3.50065 60.8924 3.87584 61.0058C4.07846 61.0669 4.21128 61.7417 4.18316 62.1246C4.03289 64.1857 3.73817 66.24 3.67031 68.3031C3.64122 69.193 3.89329 70.1635 4.27041 70.9808C5.06926 72.7142 7.36208 72.974 8.46728 71.4161C9.88465 69.4189 10.1154 67.1339 9.5337 64.7693C9.38634 64.1702 9.14591 63.5875 9.05963 62.9806C9.00049 62.5706 8.99855 62.0344 9.21572 61.73C9.52595 61.2947 10.0252 60.8556 10.5158 60.7489C10.7514 60.6975 11.3457 61.3616 11.4397 61.7775C11.6879 62.8866 11.7538 64.0345 11.8934 65.1668Z" fill="white" style="fill:white;fill:white;fill-opacity:1;"/>
<path id="Vector_10" d="M49.3481 1.15079C50.4552 0.304437 53.4829 0.0882438 54.3777 0.832802C54.6889 1.09165 54.7801 1.71309 54.8121 2.18037C54.8402 2.5924 54.5513 3.02576 54.5813 3.43682C54.6027 3.72863 54.9197 3.99911 55.1048 4.27929C55.3811 4.04856 55.7932 3.86823 55.9008 3.57642C56.0414 3.19445 55.9793 2.72037 55.9376 2.29283C55.7728 0.63309 56.5086 -0.025185 58.1316 0.359697C58.4234 0.4295 58.7132 0.507058 58.7753 0.523539C58.752 1.35923 58.5639 2.12705 58.7404 2.80084C59.6876 6.41893 58.4263 8.58086 54.7345 9.1228C53.099 9.36323 51.4024 9.19454 49.7339 9.18969C49.511 9.18872 49.289 9.05978 48.7393 8.88721C50.2778 8.27257 50.6685 7.27885 50.43 5.84887C50.6375 5.97394 50.8498 6.09124 51.0515 6.22503C51.3326 6.41117 51.5866 6.64966 51.8871 6.79218C52.4446 7.05781 53.035 7.05103 53.3423 6.45286C53.6458 5.86342 53.3549 5.33505 52.7888 5.0636C51.9366 4.65448 51.0495 4.31807 50.178 3.95161C50.1644 3.86436 50.1508 3.7771 50.1372 3.68985C50.9642 3.46008 51.7912 3.23129 52.6908 2.98116C51.9065 1.80713 50.5667 1.6268 49.3481 1.15079ZM57.1078 4.15229C56.6531 5.88862 56.3564 6.22891 54.2129 7.48535C55.6158 7.3186 56.9546 7.21875 57.5857 5.83336C57.832 5.29433 57.8533 4.6254 57.1078 4.15229Z" fill="white" style="fill:white;fill:white;fill-opacity:1;"/>
<path id="Vector_11" d="M23.1131 26.2638C23.2111 25.0326 23.1849 23.8294 21.9362 23.0335C21.4408 23.7354 21.0007 24.3229 21.243 25.3021C21.4476 26.1271 21.118 27.0326 21.625 27.8838C22.1185 28.7107 22.3696 29.6793 22.8456 30.5188C23.1141 30.9929 23.1888 31.3739 22.7166 31.593C22.4665 31.7093 21.9982 31.5814 21.7345 31.4049C20.5256 30.5964 20.1184 29.1674 19.879 27.9594C19.5426 26.2667 19.2139 24.3956 20.3957 22.7533C18.9841 22.4596 18.0932 22.8648 16.3733 24.4955C15.6947 22.447 17.1043 21.4193 20.6187 21.5289C19.6463 20.6098 18.7495 19.9428 17.4058 20.4915C17.2624 19.7043 17.2333 18.9859 17.9555 18.5419C18.6458 18.1173 19.307 18.4285 19.8256 18.8958C20.3889 19.4038 20.8543 20.0204 21.3817 20.6108C21.4505 20.0843 21.4796 19.5385 21.5979 19.0131C21.8208 18.0242 22.4646 17.8148 23.2033 18.5041C23.5533 18.8308 23.8073 19.2603 24.0535 19.5773C23.4719 20.0989 22.9735 20.5448 22.4752 20.9918C22.5256 21.0587 22.5761 21.1256 22.6265 21.1915C23.1907 20.9229 23.7326 20.5739 24.326 20.4081C24.9367 20.2385 25.6144 20.1183 26.232 20.2046C27.6086 20.3965 28.0643 21.7867 27.1879 22.9142C26.1583 21.8013 24.9067 21.5579 23.2285 22.1716C24.2552 22.5827 25.4224 22.8503 25.277 24.3074C25.1869 25.2109 24.2474 26.0641 23.1131 26.2638Z" fill="white" style="fill:white;fill:white;fill-opacity:1;"/>
<path id="Vector_12" d="M14.4681 41.563C14.5825 42.5897 14.5718 43.596 14.8248 44.5315C15.3619 46.5228 17.6722 47.7531 19.6102 47.1384C20.0232 47.0076 20.4934 46.7187 20.7095 46.3638C21.3116 45.374 21.1351 44.3347 20.5884 43.3623C20.0581 42.42 19.2427 41.9304 18.1424 41.9818C17.4986 42.0119 16.9916 42.2629 16.8384 42.9445C16.6707 43.689 17.1787 44.5868 17.9562 44.8854C18.6097 45.1365 19.2553 45.2121 19.8021 44.4365C19.3067 44.3008 18.82 44.2911 18.5234 44.0497C18.2238 43.8064 18.1104 43.3323 17.9155 42.959C18.2917 42.8572 18.7037 42.6042 19.0391 42.6827C20.0852 42.927 20.7716 44.1893 20.5331 45.2412C20.3179 46.1903 19.3339 46.7371 18.187 46.5403C16.725 46.2902 15.7972 45.4419 15.4007 44.0187C14.8694 42.1088 16.2538 40.514 18.2374 40.7438C20.3567 40.9891 21.9456 42.7147 22.1909 45.0395C22.5516 48.4579 20.1162 50.3018 16.6794 49.1453C14.8045 48.5141 13.5344 47.1995 12.9692 45.28C12.5146 43.7395 13.1515 42.1844 14.4681 41.563Z" fill="white" style="fill:white;fill:white;fill-opacity:1;"/>
<path id="Vector_13" d="M52.7171 42.6306C52.4816 42.9408 52.2537 43.2578 52.0104 43.5613C51.5479 44.1391 51.1291 44.7654 50.5969 45.2714C49.5809 46.237 48.0171 46.0082 47.2086 44.8487C46.7965 44.2583 47.1252 43.8638 47.5566 43.506C48.2701 42.9146 49.0215 42.364 49.703 41.7377C49.9725 41.4895 50.0947 41.0823 50.2847 40.7479C50.1858 40.6674 50.0879 40.5869 49.989 40.5074C49.6555 40.7799 49.3191 41.0484 48.9895 41.3257C48.1868 42.0004 47.4209 42.7256 46.5687 43.3286C46.2788 43.5341 45.6913 43.5884 45.3898 43.4285C45.1261 43.2879 44.8876 42.6907 44.9788 42.4047C45.0777 42.0935 45.5382 41.793 45.8988 41.6883C47.0748 41.346 48.0123 40.7139 48.7685 39.7532C49.9803 38.2127 51.6653 37.8608 53.2843 38.7643C54.724 39.568 55.3842 41.442 54.7782 43.1357C54.086 45.0698 52.7385 46.5017 51.1437 47.7271C50.5571 48.177 50.0889 47.9414 49.7399 47.4062C49.3346 46.7848 49.7408 46.5327 50.2343 46.1876C51.0564 45.6137 51.8417 44.9564 52.5252 44.2254C52.8509 43.8773 52.9091 43.2782 53.0884 42.7925C52.9634 42.7382 52.8403 42.6849 52.7171 42.6306ZM53.1941 41.1618C53.3085 41.0242 53.6701 40.7818 53.7244 40.4832C53.8165 39.9771 52.9004 39.2374 52.2731 39.3324C52.024 39.3702 51.6769 39.7483 51.641 40.0081C51.5586 40.615 52.2625 41.1841 53.1941 41.1618Z" fill="white" style="fill:white;fill:white;fill-opacity:1;"/>
<path id="Vector_14" d="M17.3319 14.0975C18.1569 14.4 17.4957 15.9492 18.7929 15.5857C19.3503 15.4296 19.8215 14.1072 19.5035 13.4509C19.3562 13.1475 18.7977 13.0447 18.3993 12.8372C18.7968 11.6923 19.9931 10.8731 21.3058 10.972C22.6582 11.0747 23.3824 11.9695 23.7809 14.0956C24.9122 13.0796 26.0436 11.8774 27.5899 13.2774C28.3868 13.9987 28.4033 15.6429 27.6423 16.6599C27.491 16.1111 27.3699 15.6729 27.2293 15.1611C26.5419 15.5624 26.6253 16.212 26.7048 16.7675C26.7484 17.0719 27.0984 17.3317 27.461 17.8097C27.3834 18.3826 26.9365 19.0012 26.0717 19.0748C23.998 19.2503 23.6442 17.5499 23.1575 16.3215C22.0048 16.8218 20.9393 17.4975 19.7837 17.737C17.8961 18.1286 16.4342 16.5261 16.9354 14.8159C17.0139 14.5532 17.2049 14.3225 17.3319 14.0975ZM21.5385 12.2546C20.632 13.1019 20.0077 15.4141 20.3693 16.4514C21.2525 15.1281 21.4134 13.6942 21.5385 12.2546ZM24.9093 17.3763C25.0111 17.4102 25.1129 17.4442 25.2147 17.4781C25.9738 16.8392 26.3577 15.2347 25.7499 14.2284C25.4687 15.2774 25.1885 16.3273 24.9093 17.3763ZM22.4982 13.5275C21.8506 14.1761 21.742 14.9158 21.7702 15.7932C22.9898 15.3113 23.2069 14.6065 22.4982 13.5275ZM24.6476 14.7713C23.7159 15.4529 23.6655 15.8833 24.3373 16.3186C24.4294 15.8571 24.5147 15.4315 24.6476 14.7713Z" fill="white" style="fill:white;fill:white;fill-opacity:1;"/>
<path id="Vector_15" d="M37.8257 33.4158C37.8906 32.4774 37.9168 31.5903 38.0302 30.7158C38.0777 30.3503 38.2387 29.7861 38.4752 29.7115C38.7903 29.6116 39.2305 29.8957 39.6134 30.0227C39.9663 30.14 40.3163 30.2679 40.6672 30.392C40.5257 29.9684 40.4394 29.5137 40.2222 29.1327C40.102 28.9223 39.7685 28.8292 39.5252 28.6935C37.688 27.6639 37.3855 26.2475 38.5596 24.5713C39.1577 24.9397 39.7365 25.3197 40.3376 25.661C41.1103 26.0992 41.3662 26.7468 41.2809 27.6096C41.2344 28.0798 41.308 28.5617 41.3274 29.0386C41.4738 29.0386 41.6202 29.0396 41.7666 29.0396C41.7908 28.6518 41.8316 28.265 41.8345 27.8772C41.8422 26.8903 42.3551 26.5141 43.2722 26.8651C43.8975 27.1036 44.5102 27.376 45.3798 27.7366C44.8175 28.1002 44.4181 28.3891 43.9896 28.6256C43.6125 28.8331 43.1345 28.9058 42.8311 29.1812C42.5848 29.4041 42.3405 29.9257 42.4443 30.1613C42.5664 30.4386 43.0541 30.6431 43.406 30.6848C43.5446 30.7013 43.7482 30.1952 43.9169 29.9238C43.9634 29.8481 43.9896 29.7599 44.0681 29.5767C45.1103 29.981 45.946 30.6286 46.615 31.4875C46.7022 31.6 46.6208 32.0198 46.4986 32.0896C45.6057 32.6024 44.6295 32.7721 43.5223 32.7818C43.5999 32.3368 43.6513 32.046 43.7172 31.6679C43.4419 31.5951 43.1879 31.4866 42.9271 31.4662C42.2407 31.4139 42.0759 31.6843 42.3958 32.2893C42.453 32.3979 42.5674 32.489 42.5926 32.6015C42.6886 33.0377 42.7594 33.4788 42.8398 33.918C42.3454 33.9316 41.8199 34.0576 41.3652 33.9306C40.802 33.7745 40.5538 33.2665 40.7331 32.6674C40.8524 32.2699 41.0434 31.8928 41.119 31.4177C39.8945 31.9955 39.2314 33.5564 37.8257 33.4158Z" fill="white" style="fill:white;fill:white;fill-opacity:1;"/>
<path id="Vector_16" d="M28.3843 37.2514C26.7498 37.7458 24.7274 36.8239 23.8375 35.2417C23.1074 33.9426 23.3808 32.342 24.5655 31.2339C24.8341 31.3958 25.1026 31.6091 25.407 31.7273C25.693 31.8379 26.0178 31.8475 26.3251 31.9018C26.3736 31.8126 26.4221 31.7225 26.4696 31.6333C26.203 31.3861 25.9548 31.1137 25.6669 30.8955C25.1259 30.4864 24.5083 30.1636 24.0187 29.7021C23.2684 28.9963 23.3294 28.2207 24.1147 27.5499C24.4434 27.2697 24.8127 27.037 25.1666 26.7869C26.0895 26.1344 26.9407 25.449 26.3513 24.083C28.0857 24.6569 28.6926 26.3089 27.7629 27.6904C27.5903 27.9464 27.3848 28.181 27.1928 28.4234C26.7023 29.0419 26.7701 29.5867 27.3411 30.1374C28.6296 31.3793 28.6461 31.5974 27.7406 33.1554C27.663 33.2892 27.5816 33.421 27.503 33.5548C26.4977 35.2582 26.6829 36.0997 28.3843 37.2514Z" fill="white" style="fill:white;fill:white;fill-opacity:1;"/>
<path id="Vector_17" d="M28.7238 33.5586C28.9875 34.7937 29.9182 35.2368 30.8906 35.6798C33.1097 36.691 32.4281 40.0696 30.8944 41.3008C28.081 43.5607 23.7649 41.9494 23.1677 38.3876C23.1173 38.0899 23.1221 37.7652 23.1832 37.4695C23.348 36.6822 23.7271 36.5678 24.3146 37.1389C25.573 38.3624 27.0844 38.5718 28.7005 38.1937C29.0961 38.1016 29.417 37.6934 29.7727 37.4307C29.5246 37.1108 29.3326 36.7142 29.0185 36.4845C27.7543 35.5635 27.6351 34.8625 28.7238 33.5586ZM29.2085 40.7492C30.3709 40.6794 31.2211 39.5189 30.8983 38.4438C29.0951 39.1011 28.8896 39.3813 29.2085 40.7492Z" fill="white" style="fill:white;fill:white;fill-opacity:1;"/>
<path id="Vector_18" d="M46.3599 35.4958C45.9372 35.677 45.5843 35.8283 45.0182 36.0697C45.245 35.5035 45.3943 35.1303 45.563 34.7095C45.1558 34.5495 44.7952 34.408 44.1641 34.1598C44.6682 33.9659 44.9503 33.8593 45.2315 33.7488C45.8296 33.5132 46.486 33.3668 47.0114 33.0207C48.1089 32.2975 48.1069 31.2727 47.0686 30.4419C46.708 30.153 46.294 29.9329 45.9111 29.6711C45.6726 29.5073 45.4467 29.325 45.3875 29.2804C45.882 28.6629 46.3027 28.1365 46.7594 27.5664C46.7884 27.5916 46.9513 27.7186 47.0958 27.864C47.2237 27.9939 47.3304 28.1442 47.4913 28.341C47.8442 28.088 48.1777 27.8505 48.5112 27.612C48.6004 27.6381 48.6896 27.6643 48.7778 27.6905C48.7196 28.1394 48.6586 28.5873 48.6043 29.0361C48.5451 29.5247 48.4288 30.0182 48.4666 30.4991C48.4841 30.724 48.8079 30.9237 48.9921 31.136C49.185 30.9625 49.5156 30.8112 49.5456 30.6125C49.6387 30.0105 49.6193 29.39 49.6377 28.7763C49.6455 28.5204 49.6387 28.2644 49.6387 27.9532C50.7972 28.5708 50.7972 28.5708 51.9063 28.2218C51.853 28.4583 51.8142 28.6542 51.7638 28.8461C51.7182 29.0187 51.6601 29.1874 51.5951 29.3958C51.9431 29.5732 52.2573 29.7342 52.8525 30.0386C52.138 30.2247 51.6436 30.2616 51.249 30.4797C50.7817 30.7376 50.4017 31.1515 49.9838 31.4986C50.488 31.614 51.0105 31.8699 51.4933 31.8098C52.169 31.7264 52.8157 31.4075 53.6989 31.1147C53.3799 31.707 53.1715 32.0939 52.9456 32.5146C53.3392 32.8113 53.696 33.0818 54.2146 33.4734C53.3082 33.6062 52.329 33.4948 52.6964 34.9587C52.5898 34.9015 52.4822 34.8443 52.3755 34.7871C52.0595 34.3246 51.7725 33.8389 51.4187 33.4065C51.0115 32.9092 50.4172 32.1598 49.851 32.6406C49.2092 33.1855 49.8995 33.8893 50.3551 34.3566C50.8147 34.8278 51.3896 35.1875 52.1206 35.7575C50.6683 35.6945 50.7643 36.5816 50.9 37.617C50.074 37.172 49.5922 35.7585 48.5539 37.4396C48.5316 37.2893 48.5083 37.1381 48.486 36.9878C48.6159 36.5728 48.7953 36.1657 48.8631 35.7401C48.9775 35.0188 49.1278 34.2771 49.0657 33.5617C49.0056 32.8714 48.4472 32.7337 48.0681 33.3135C47.7114 33.8583 47.5165 34.5243 47.3313 35.1613C47.2073 35.5859 47.2257 36.0522 47.1801 36.5001C47.1006 36.5166 47.0211 36.5331 46.9416 36.5486C46.7652 36.2287 46.5878 35.9078 46.3599 35.4958Z" fill="white" style="fill:white;fill:white;fill-opacity:1;"/>
<path id="Vector_19" d="M15.9157 33.5716C17.0248 33.845 17.2681 33.6734 17.1334 32.5168C17.0451 31.7586 16.7504 31.0257 16.5701 30.2763C16.4043 29.588 16.2666 28.8929 15.9952 28.1667C15.9419 28.6835 15.8721 29.2002 15.8391 29.7179C15.7751 30.7358 15.8052 31.7654 15.6559 32.7688C15.5347 33.5822 14.7281 34.0369 13.9913 33.875C13.2341 33.7083 12.9976 33.2545 13.1915 32.3374C14.6418 32.6544 14.9278 32.4547 14.8861 30.7824C14.8192 28.1057 15.7431 25.9466 17.9283 24.3625C18.003 24.3082 18.0844 24.2646 18.1668 24.2229C18.1901 24.2113 18.2269 24.2268 18.3336 24.2365C18.2628 24.5865 18.1814 24.9277 18.1251 25.2738C17.8624 26.8851 18.2841 28.348 19.1411 29.6956C19.9381 30.9491 20.7941 32.1649 21.5755 33.4281C21.846 33.8653 22.0631 34.3801 22.1397 34.8842C22.2677 35.7335 21.8586 36.4044 21.1014 36.7893C20.4393 37.1257 19.6656 37.1169 19.2371 36.5149C18.9308 36.0854 18.9705 35.4029 18.8852 34.8299C18.8736 34.7534 19.0316 34.6516 19.1576 34.5081C19.2711 34.6516 19.336 34.8115 19.4504 34.8629C19.7248 34.987 20.0583 35.1828 20.2977 35.113C20.4606 35.0655 20.6438 34.575 20.5779 34.3539C20.4121 33.7984 20.1504 33.2604 19.8547 32.7582C18.7582 30.8919 17.5376 29.0848 17.2836 26.8463C17.1925 26.8541 17.1004 26.8618 17.0093 26.8696C17.049 27.5957 16.987 28.3461 17.1527 29.0422C17.4378 30.2424 17.8954 31.4009 18.2143 32.5953C18.3384 33.0597 18.3675 33.588 18.288 34.0612C18.161 34.8144 17.3496 35.3127 16.6767 35.084C15.9651 34.8435 15.653 34.3423 15.9157 33.5716Z" fill="white" style="fill:white;fill:white;fill-opacity:1;"/>
<path id="Vector_20" d="M42.3198 53.0859C40.8298 53.0636 40.0503 52.1222 40.3673 50.7049C40.4807 50.1998 40.695 49.7082 40.9267 49.2419C41.3542 48.381 41.9359 47.9932 43.0072 48.2918C44.444 48.6922 45.8158 48.2598 47.078 47.493C47.8914 46.9986 48.5642 47.2884 48.7562 48.2298C48.9695 49.2788 48.4925 50.1154 47.8081 50.8241C46.3054 52.3821 44.381 52.9608 42.3198 53.0859ZM43.7052 51.3738C45.5191 51.3593 46.6776 50.3568 46.3626 49.1808C45.5608 49.3757 44.76 49.5706 43.9156 49.7761C43.8497 50.2754 43.7818 50.7902 43.7052 51.3738Z" fill="white" style="fill:white;fill:white;fill-opacity:1;"/>
<path id="Vector_21" d="M21.1683 0.602126C20.0456 1.7083 20.0485 1.70345 21.3486 2.56726C21.591 2.72819 21.7975 2.94535 22.0204 3.13634C21.9884 3.23813 21.9574 3.33993 21.9254 3.44172C21.5105 3.38259 21.0946 3.33023 20.6806 3.26237C19.8983 3.13537 19.6452 3.43009 19.9041 4.18822C20.064 4.65745 20.2444 5.11989 20.416 5.58621C20.3083 5.65601 20.1998 5.72484 20.0921 5.79464C19.8343 5.54646 19.588 5.28373 19.3156 5.05299C19.0005 4.78639 18.6612 4.5479 18.3325 4.2968C18.1319 4.65551 17.9128 5.00549 17.7344 5.37583C17.5705 5.71515 17.4513 6.07579 17.3127 6.42771C17.2215 6.42286 17.1314 6.41899 17.0402 6.41414C16.9588 6.08549 16.8958 5.75102 16.7901 5.43012C16.6641 5.0433 16.5012 4.66811 16.3548 4.28808C15.9738 4.44901 15.587 4.5954 15.2147 4.77475C14.9529 4.90079 14.7125 5.06947 14.4614 5.21877C14.381 5.15285 14.3005 5.08693 14.22 5.02197C14.5816 4.4112 14.9442 3.79946 15.4135 3.0074C14.4149 3.0074 13.6335 3.0074 12.8521 3.0074C12.8317 2.92499 12.8114 2.84162 12.791 2.75921C13.1216 2.58955 13.4658 2.44122 13.7779 2.24248C14.1017 2.03598 14.3926 1.78004 14.698 1.54543C14.4789 1.27882 14.2598 1.01125 14.0378 0.740761C14.6922 0.119326 15.7731 0.123204 16.5206 0.791174C17.4843 1.6511 17.6122 1.66079 18.6088 0.81638C19.4087 0.138716 20.2347 0.33455 21.1683 0.602126Z" fill="white" style="fill:white;fill:white;fill-opacity:1;"/>
<path id="Vector_22" d="M49.3247 15.2268C47.1114 15.2239 45.3993 14.0499 44.7847 12.2815C44.4531 11.3266 44.6276 11.0542 45.6029 10.9233C46.1507 10.8496 46.7197 10.7944 47.2278 10.5976C47.9112 10.3329 48.4677 10.139 49.03 10.8661C49.1706 11.0484 49.793 10.9941 50.1236 10.8661C50.9302 10.553 51.3975 10.8419 51.8017 11.5253C53.0146 13.5738 52.5192 14.7101 50.1866 15.1366C49.8221 15.2016 49.4498 15.2142 49.3247 15.2268ZM46.9282 12.4308C47.6388 13.7125 49.6311 14.0334 50.3921 13.0746C49.283 12.8681 48.1643 12.6606 46.9282 12.4308Z" fill="white" style="fill:white;fill:white;fill-opacity:1;"/>
<path id="Vector_23" d="M30.7486 43.9374C30.6846 43.4778 30.5906 43.154 30.6119 42.838C30.6284 42.5917 30.7282 42.2815 30.9037 42.139C31.0259 42.0401 31.3477 42.1506 31.5649 42.2175C31.7898 42.2873 32.0448 42.3717 32.1989 42.5336C32.4549 42.8021 32.6439 43.1346 32.8494 43.4478C32.8717 43.4817 32.8058 43.5632 32.8058 43.6223C32.8019 45.0591 32.8029 45.0591 31.2973 44.6073C31.5319 46.0159 31.1412 47.2307 29.8305 47.7494C28.8048 48.1546 27.6433 48.4115 26.5478 48.397C25.2235 48.3795 24.479 47.537 24.4751 46.458C24.8639 46.458 25.2565 46.427 25.6414 46.4638C26.6089 46.5579 27.2255 46.1216 27.6181 45.2665C27.8101 44.8487 28.0137 44.4211 28.2919 44.0595C28.9638 43.187 29.7966 43.4468 30.7486 43.9374Z" fill="white" style="fill:white;fill:white;fill-opacity:1;"/>
<path id="Vector_24" d="M55.0618 34.9416C55.0618 34.6187 55.0502 34.3715 55.0638 34.1262C55.1006 33.4486 55.3789 32.9318 56.072 32.7312C56.7633 32.5315 57.2868 32.8223 57.6833 33.3613C58.3484 34.2678 58.4511 35.3109 58.2854 36.3764C58.0575 37.8422 57.4322 39.1055 56.1671 40.2068C56.0032 38.8941 55.1627 38.3638 54.2087 37.9295C52.9096 37.3391 52.5441 36.7923 52.8088 35.8897C53.0482 35.0744 53.6483 34.8165 55.0618 34.9416Z" fill="white" style="fill:white;fill:white;fill-opacity:1;"/>
<path id="Vector_25" d="M17.8083 37.4411C17.2431 38.3194 16.6459 39.3626 15.913 40.301C15.7365 40.5269 14.8563 40.5831 14.738 40.4135C14.0186 39.38 12.3279 40.2176 11.8499 38.8458C11.6056 38.1439 11.9507 37.6863 12.4471 37.2384C12.705 37.0067 12.9425 36.6645 13.0162 36.3339C13.2624 35.2365 14.3802 34.8148 15.3061 35.4624C15.6357 35.6931 16.0826 35.8191 16.4898 35.8628C17.2402 35.9442 17.8248 36.5133 17.8083 37.4411ZM14.8456 36.9059C14.5431 37.347 14.198 37.635 14.2416 37.8415C14.2978 38.109 14.6624 38.3107 14.895 38.5414C15.0938 38.3088 15.435 38.0848 15.4515 37.8395C15.467 37.603 15.1481 37.3441 14.8456 36.9059Z" fill="white" style="fill:white;fill:white;fill-opacity:1;"/>
<path id="Vector_26" d="M11.7378 14.5289C13.3316 14.5667 14.113 15.9269 13.4528 17.3723C12.748 18.9158 10.5638 20.052 8.88174 19.4519C7.42171 18.9313 7.37905 19.0525 7.74649 17.542C8.22056 15.5856 9.68544 14.4804 11.7378 14.5289ZM9.4169 16.3302C9.06304 16.9865 9.10278 17.543 9.56523 18.0442C9.92975 18.4388 10.3544 18.6899 10.8876 18.3796C10.4048 17.7078 9.95496 17.0805 9.4169 16.3302ZM12.4368 17.5556C12.5628 17.258 12.7374 17.0369 12.684 16.9371C12.4087 16.4194 12.0868 15.9249 11.7456 15.4479C11.7126 15.4024 11.2977 15.5391 11.2996 15.574C11.3248 15.924 11.3268 16.3079 11.4829 16.6055C11.6351 16.8944 11.9579 17.0941 12.4368 17.5556Z" fill="white" style="fill:white;fill:white;fill-opacity:1;"/>
<path id="Vector_27" d="M19.7563 37.6777C21.132 37.8823 22.051 38.6065 22.6056 40.0316C22.7394 40.3758 22.8615 40.7316 22.9304 41.0922C23.0632 41.7796 23.419 42.0889 24.1471 42.0666C25.4297 42.0268 26.2043 42.7849 26.6871 43.8814C27.0516 44.7093 26.7307 45.2484 25.8291 45.4171C24.6328 45.641 23.1039 44.7869 22.6628 43.6468C22.6289 43.5605 22.5755 43.4752 22.5687 43.386C22.4078 41.2192 21.2027 40.0626 19.1096 39.6526C18.7858 39.5886 18.5532 39.0554 18.2788 38.7393C18.7713 38.3855 19.2638 38.0316 19.7563 37.6777ZM25.6614 44.0278C25.5509 43.3055 25.0293 43.0438 24.3836 42.9779C24.2828 42.9672 24.1509 43.2522 24.0336 43.4006C24.5145 43.6546 24.9953 43.9105 25.4801 44.1567C25.5043 44.1684 25.5741 44.0918 25.6614 44.0278Z" fill="white" style="fill:white;fill:white;fill-opacity:1;"/>
<path id="Vector_28" d="M54.4482 15.2763C56.1865 15.0388 57.7251 14.62 58.7459 12.8652C58.9767 13.3606 59.219 13.6379 59.2122 13.9084C59.1715 15.5439 59.1424 17.1852 58.9689 18.8091C58.8613 19.8154 58.3436 20.0229 57.5961 19.3433C56.6024 18.4397 55.7376 17.3888 54.8632 16.3621C54.646 16.1081 54.6043 15.7048 54.4482 15.2763Z" fill="white" style="fill:white;fill:white;fill-opacity:1;"/>
<path id="Vector_29" d="M38.9078 17.611C37.6853 16.8558 37.4943 14.9013 38.4357 13.6042C38.8196 13.7748 39.1938 14.0016 39.6 14.1034C40.0024 14.2043 40.4367 14.1791 40.9292 14.214C40.8798 14.5698 40.839 14.8548 40.8003 15.133C42.1856 15.5082 42.9777 14.9391 43.7795 13.0234C44.2807 13.8087 44.2865 14.9149 43.761 15.7651C43.0892 16.8509 42.0422 17.2174 40.8293 17.2261C40.6461 17.2271 40.458 17.1922 40.2796 17.1457C39.7077 16.9934 39.1008 16.69 38.9078 17.611Z" fill="white" style="fill:white;fill:white;fill-opacity:1;"/>
<path id="Vector_30" d="M41.8978 34.8125C43.4461 35.0801 44.7277 36.4238 44.8092 38.0506C44.8528 38.9202 44.5978 39.7559 43.7583 40.0283C43.194 40.2105 42.3806 40.1378 41.8697 39.846C41.1116 39.4127 41.0263 38.5615 41.2492 37.7015C41.4887 36.7776 41.67 35.8382 41.8978 34.8125ZM43.099 36.4596C42.9555 36.4878 42.8111 36.5149 42.6676 36.543C42.7461 36.9395 42.8237 37.336 42.9022 37.7326C43.0515 37.6647 43.3346 37.5813 43.3288 37.5329C43.2842 37.1712 43.1824 36.8164 43.099 36.4596Z" fill="white" style="fill:white;fill:white;fill-opacity:1;"/>
<path id="Vector_31" d="M13.2733 20.0484C13.2956 19.9272 13.2879 19.7885 13.346 19.6877C13.697 19.0808 13.9364 18.2946 14.4629 17.9388C14.905 17.6402 16.2041 18.9209 16.4513 19.7478C16.7431 20.726 16.5075 21.7207 15.7571 22.0193C15.3306 22.189 14.6064 22.2297 14.3136 21.9795C13.7784 21.5229 13.4643 20.8065 13.0571 20.1986C13.1289 20.1482 13.2016 20.0988 13.2733 20.0484Z" fill="white" style="fill:white;fill:white;fill-opacity:1;"/>
<path id="Vector_32" d="M41.2693 11.9985C40.1806 11.3451 39.4826 11.9103 38.8408 12.6704C38.3996 11.4692 39.1025 10.1904 40.3454 10.1866C41.3517 10.1827 42.3629 10.5288 43.3605 10.7663C43.472 10.7925 43.5815 11.1308 43.5708 11.317C43.5127 12.3272 43.2625 13.2608 42.2533 13.9927C42.0778 13.1813 40.4268 13.3267 41.2693 11.9985Z" fill="white" style="fill:white;fill:white;fill-opacity:1;"/>
<path id="Vector_33" d="M44.5796 47.7241C44.1065 47.6678 43.8894 47.6523 43.6761 47.6155C43.0159 47.504 42.3779 47.3789 42.3207 46.5054C42.2606 45.5844 42.8326 45.186 43.5898 45.089C44.3431 44.9921 45.139 44.9659 45.8748 45.1152C46.2452 45.1898 46.7619 45.7105 46.7803 46.0527C46.8026 46.4637 46.4643 47.06 46.1017 47.2868C45.6053 47.5951 44.9393 47.631 44.5796 47.7241Z" fill="white" style="fill:white;fill:white;fill-opacity:1;"/>
<path id="Vector_34" d="M57.7339 9.92773C58.6714 10.1488 58.7965 10.7867 58.7083 11.5012C58.4843 13.3073 55.6903 14.9981 53.9879 14.334C53.7067 14.2245 53.35 13.827 53.3616 13.5778C53.3742 13.3228 53.7542 12.9748 54.047 12.8682C54.588 12.6714 55.2046 12.683 55.7514 12.4959C57.0427 12.0577 57.5817 11.3403 57.7339 9.92773Z" fill="white" style="fill:white;fill:white;fill-opacity:1;"/>
<path id="Vector_35" d="M12.5875 12.2514C12.4256 13.536 12.1415 13.7464 10.9636 13.408C9.84677 13.0871 9.0867 12.3668 9.17492 11.4545C9.22339 10.9485 9.56659 10.1932 9.94856 10.0662C10.4488 9.89948 11.2864 10.0594 11.6723 10.4133C12.1435 10.8447 12.2966 11.6232 12.5875 12.2514Z" fill="white" style="fill:white;fill:white;fill-opacity:1;"/>
<path id="Vector_36" d="M45.681 36.8994C46.8657 36.975 47.8313 37.5635 47.9321 38.4826C47.9903 39.0129 47.7886 39.7671 47.4173 40.09C47.0906 40.374 46.2879 40.375 45.8332 40.1801C45.2089 39.9135 45.1565 39.2407 45.3533 38.5718C45.5055 38.0492 45.5666 37.4995 45.681 36.8994Z" fill="white" style="fill:white;fill:white;fill-opacity:1;"/>
<path id="Vector_37" d="M24.2915 7.39941C24.8111 7.61755 25.1039 7.68347 25.3298 7.84537C26.0831 8.38246 26.816 8.94864 27.547 9.51675C27.7147 9.64763 27.9736 9.83668 27.9658 9.98695C27.9358 10.558 27.8126 11.1241 27.7244 11.6923C27.3473 11.5265 26.85 11.4606 26.6153 11.1765C25.9086 10.3243 25.2901 9.39654 24.6677 8.47747C24.5116 8.24674 24.4728 7.9365 24.2915 7.39941Z" fill="white" style="fill:white;fill:white;fill-opacity:1;"/>
<path id="Vector_38" d="M45.5802 24.9288C45.5812 25.716 44.8822 26.3879 44.0814 26.3694C43.3029 26.352 42.6621 25.715 42.6553 24.953C42.6485 24.1939 43.2913 23.5308 44.0582 23.5075C44.8716 23.4823 45.5793 24.1425 45.5802 24.9288Z" fill="white" style="fill:white;fill:white;fill-opacity:1;"/>
<path id="Vector_39" d="M26.7994 61.1678C26.8091 62.0433 26.0849 62.8906 25.3151 62.8722C24.4882 62.8518 24.2089 62.3099 24.1837 61.5828C24.1527 60.6637 24.7693 59.9472 25.5701 59.9414C26.2671 59.9375 26.7916 60.4601 26.7994 61.1678Z" fill="white" style="fill:white;fill:white;fill-opacity:1;"/>
<path id="Vector_40" d="M53.0654 10.6698C53.9884 10.4294 54.89 10.1473 55.812 9.9805C56.1377 9.92136 56.5148 10.1453 56.8687 10.2403C56.7397 10.5893 56.7097 11.109 56.4625 11.2534C55.7867 11.6461 55.0412 11.9863 54.2821 12.1453C53.5075 12.3072 53.1701 11.7973 53.0654 10.6698Z" fill="white" style="fill:white;fill:white;fill-opacity:1;"/>
<path id="Vector_41" d="M44.1417 17.6248C44.832 17.5986 45.531 18.2549 45.5543 18.953C45.5775 19.6481 44.9096 20.3306 44.2028 20.3335C43.5271 20.3364 42.8969 19.7421 42.8494 19.0548C42.8 18.348 43.4282 17.6519 44.1417 17.6248Z" fill="white" style="fill:white;fill:white;fill-opacity:1;"/>
<path id="Vector_42" d="M43.1851 21.0856C43.1628 21.8147 42.5908 22.3353 41.8366 22.3111C41.0882 22.2878 40.5394 21.7129 40.616 20.98C40.6946 20.2286 41.1376 19.8059 41.9006 19.7865C42.6151 19.7681 43.2065 20.3857 43.1851 21.0856Z" fill="white" style="fill:white;fill:white;fill-opacity:1;"/>
<path id="Vector_43" d="M8.22973 11.1826C8.12987 12.6184 8.7707 13.4173 9.89335 13.9456C9.23605 14.505 8.55935 14.6853 7.97185 14.2723C7.55206 13.9766 7.18366 13.4192 7.07508 12.917C6.92578 12.219 7.33393 11.6528 8.22973 11.1826Z" fill="white" style="fill:white;fill:white;fill-opacity:1;"/>
<path id="Vector_44" d="M40.465 22.412C40.3768 23.1003 39.9686 23.5443 39.2638 23.5414C38.557 23.5385 38.1295 23.1032 38.0946 22.3722C38.0616 21.6829 38.6395 21.0974 39.3161 21.1633C40.0287 21.2331 40.402 21.6752 40.465 22.412Z" fill="white" style="fill:white;fill:white;fill-opacity:1;"/>
<path id="Vector_45" d="M39.0046 38.1709C39.848 38.1922 40.5257 38.5063 40.737 39.3624C40.8155 39.6813 40.6527 40.1845 40.4161 40.4181C40.2193 40.613 39.6619 40.6877 39.4321 40.5451C39.1568 40.3735 38.9638 39.9295 38.9105 39.5776C38.8465 39.1423 38.9619 38.6799 39.0046 38.1709Z" fill="white" style="fill:white;fill:white;fill-opacity:1;"/>
<path id="Vector_46" d="M7.02509 21.6133C8.01589 23.0927 9.29076 22.7951 10.6645 22.481C9.76289 23.5871 8.4764 24.1514 7.79291 23.844C7.20444 23.5784 6.88451 22.7902 7.02509 21.6133Z" fill="white" style="fill:white;fill:white;fill-opacity:1;"/>
<path id="Vector_47" d="M13.0149 22.2583C12.2704 22.6248 11.4851 22.4028 11.2078 21.6776C10.8966 20.8652 11.3959 20.014 12.3751 19.6562C12.5855 20.5113 12.7978 21.3722 13.0149 22.2583Z" fill="white" style="fill:white;fill:white;fill-opacity:1;"/>
<path id="Vector_48" d="M9.7603 5.67799C9.06131 6.25386 8.48156 6.81809 7.81553 7.25048C7.34727 7.55489 7.1495 7.17098 7.15338 6.7289C7.1621 5.5568 8.35941 4.95863 9.7603 5.67799Z" fill="white" style="fill:white;fill:white;fill-opacity:1;"/>
<path id="Vector_49" d="M46.8118 22.0746C47.0581 22.4634 47.5147 22.8677 47.4895 23.238C47.4662 23.5783 46.9679 24.0786 46.6014 24.16C46.0314 24.286 45.5224 23.8527 45.6194 23.239C45.6853 22.8221 46.1041 22.4605 46.3649 22.0746C46.5142 22.0737 46.6635 22.0746 46.8118 22.0746Z" fill="white" style="fill:white;fill:white;fill-opacity:1;"/>
<path id="Vector_50" d="M25.731 2.50254C26.5424 2.42692 27.1832 2.29605 27.8056 2.35615C27.9714 2.37263 28.1915 2.97759 28.1769 3.30236C28.1682 3.50692 27.7465 3.87823 27.5478 3.85496C26.8429 3.77256 26.2312 3.44681 25.731 2.50254Z" fill="white" style="fill:white;fill:white;fill-opacity:1;"/>
<path id="Vector_51" d="M10.3048 20.7586C9.81816 21.4392 9.2006 21.7979 8.40175 21.5371C7.66883 21.2977 7.56606 20.6607 7.58933 20.0684C8.49288 20.2981 9.35669 20.5172 10.3048 20.7586Z" fill="white" style="fill:white;fill:white;fill-opacity:1;"/>
<path id="Vector_52" d="M46.2222 21.6834C45.9982 21.3499 45.5649 20.9893 45.6046 20.6917C45.6492 20.3611 46.1242 20.0886 46.4122 19.791C46.7069 20.0819 47.1936 20.3465 47.2401 20.6732C47.2828 20.9728 46.8523 21.3412 46.6293 21.6786C46.4936 21.6796 46.3579 21.6815 46.2222 21.6834Z" fill="white" style="fill:white;fill:white;fill-opacity:1;"/>
<path id="Vector_53" d="M15.1407 14.5869C15.5721 15.1502 16.0268 15.4924 15.9832 15.7503C15.926 16.0886 15.4752 16.3601 15.193 16.6597C14.9109 16.394 14.4223 16.1429 14.4019 15.8569C14.3777 15.5331 14.7723 15.1783 15.1407 14.5869Z" fill="white" style="fill:white;fill:white;fill-opacity:1;"/>
<path id="Vector_54" d="M42.8161 23.7492C42.2568 24.1196 41.8767 24.5558 41.6285 24.4909C41.2912 24.4026 41.0546 23.9305 40.7754 23.6222C41.0779 23.3701 41.3706 22.9349 41.6848 22.9184C41.9746 22.9029 42.2887 23.3382 42.8161 23.7492Z" fill="white" style="fill:white;fill:white;fill-opacity:1;"/>
<path id="Vector_55" d="M14.103 12.7539C14.5189 13.3307 14.9561 13.6768 14.9086 13.9357C14.8476 14.274 14.4045 14.5445 14.1263 14.8441C13.8432 14.5746 13.3497 14.3177 13.3313 14.0307C13.3109 13.7059 13.7162 13.354 14.103 12.7539Z" fill="white" style="fill:white;fill:white;fill-opacity:1;"/>
<path id="Vector_56" d="M45.4461 22.0301C44.9313 22.4576 44.591 22.9394 44.3477 22.8948C43.9996 22.8318 43.7214 22.3829 43.4131 22.0989C43.6904 21.8216 43.9405 21.3669 44.2517 21.3204C44.5377 21.2787 44.8886 21.6772 45.4461 22.0301Z" fill="white" style="fill:white;fill:white;fill-opacity:1;"/>
<path id="Vector_57" d="M40.7874 19.4727C40.26 19.8818 39.9071 20.351 39.657 20.3016C39.3147 20.2337 39.051 19.7713 38.7534 19.4775C39.0384 19.21 39.3041 18.7611 39.6143 18.7281C39.9061 18.6981 40.2445 19.1053 40.7874 19.4727Z" fill="white" style="fill:white;fill:white;fill-opacity:1;"/>
<path id="Vector_58" d="M46.6623 24.5898C47.0424 25.1337 47.4641 25.4759 47.4263 25.7552C47.3865 26.0508 46.9309 26.4483 46.6139 26.4929C46.3938 26.524 45.8926 26.0334 45.8926 25.7745C45.8926 25.4575 46.2823 25.1386 46.6623 24.5898Z" fill="white" style="fill:white;fill:white;fill-opacity:1;"/>
<path id="Vector_59" d="M41.4868 17.2637C41.8863 17.8105 42.2818 18.1178 42.2886 18.4338C42.2944 18.6985 41.8213 19.2114 41.608 19.1871C41.291 19.1512 40.8276 18.7702 40.7791 18.4775C40.7326 18.1934 41.1301 17.8357 41.4868 17.2637Z" fill="white" style="fill:white;fill:white;fill-opacity:1;"/>
<path id="Vector_60" d="M46.3505 16.5285C45.7775 16.8882 45.4227 17.2856 45.1464 17.2372C44.8546 17.1858 44.4871 16.7301 44.4425 16.4112C44.4144 16.2115 44.9244 15.7413 45.1871 15.7451C45.4973 15.75 45.8017 16.1349 46.3505 16.5285Z" fill="white" style="fill:white;fill:white;fill-opacity:1;"/>
<path id="Vector_61" d="M46.9287 12.4316C48.1658 12.6614 49.2845 12.8698 50.3927 13.0754C49.6316 14.0342 47.6384 13.7133 46.9287 12.4316Z" fill="white" style="fill:white;fill:white;fill-opacity:1;"/>
</g>
</svg>
