<svg width="58" height="76" viewBox="0 0 58 76" fill="none" xmlns="http://www.w3.org/2000/svg">
<g id="Group 249">
<path id="Vector" d="M44.7251 69.347C44.3949 68.894 44.0158 68.4665 43.74 67.9782C40.5959 62.4486 37.6067 56.8242 34.294 51.3965C30.4467 45.0909 26.2893 38.9613 20.5391 34.1742C19.0296 32.9159 17.2802 31.769 15.4495 31.1233C13.9578 30.5958 12.1789 30.8786 10.5245 30.8426C10.1175 30.8328 9.71064 30.9827 9.16852 30.7342C9.39801 30.5101 9.59212 30.2316 9.85855 30.0716C15.5651 26.6467 16.5158 21.1086 15.211 15.6574C14.6443 13.2849 13.5903 11.0278 12.7608 8.7161C12.594 8.25074 12.445 7.77958 12.2878 7.31268C12.4486 7.23568 12.6079 7.15594 12.7687 7.07894C13.0515 7.50107 13.3574 7.90768 13.613 8.34404C15.311 11.2307 17.215 13.9542 19.8312 16.1042C23.6258 19.2233 27.7828 20.1899 32.4269 18.2407C32.8306 18.0716 33.2601 17.9585 33.961 17.728C33.7286 18.2385 33.6827 18.5752 33.4968 18.7035C30.5287 20.7435 29.9232 23.7976 29.9325 27.0866C29.9463 31.8639 31.2148 36.403 32.705 40.8888C35.7914 50.1698 40.0858 58.9172 44.5275 67.6017C44.7586 68.0509 44.9937 68.4944 45.2275 68.9422C45.0596 69.0785 44.889 69.2162 44.7196 69.3498L44.7251 69.347Z" fill="white" style="fill:white;fill:white;fill-opacity:1;"/>
<path id="Vector_2" d="M32.7622 8.07483L32.8747 8.24977C32.6096 8.42036 28.8093 10.8654 32.3869 16.2317L32.2101 16.3454C28.85 10.9209 24.9206 13.3674 24.8322 13.4243L24.7197 13.2493C24.8081 13.1925 28.6631 10.6305 25.1192 5.32422L25.2959 5.2105C28.6967 10.6905 32.497 8.24542 32.7622 8.07483Z" fill="white" style="fill:white;fill:white;fill-opacity:1;"/>
</g>
</svg>
