<svg xmlns="http://www.w3.org/2000/svg" width="202" height="51" viewBox="0 0 202 51" fill="none">
  <path d="M201.086 25.9088V21.4826C201.086 21.4006 200.984 21.3733 200.943 21.4348L197.883 25.8678C197.849 25.9156 197.883 25.9907 197.951 25.9907H201.011C201.052 25.9907 201.086 25.9498 201.086 25.9088ZM67.8235 22.678C67.3591 21.872 66.758 21.2436 66.0271 20.7996C66.758 20.3488 67.3591 19.7203 67.8235 18.9144C68.2948 19.7203 68.8959 20.3488 69.62 20.7996C68.8959 21.2436 68.2948 21.872 67.8235 22.678ZM70.8768 25.9907H62.5299C62.4411 25.9907 62.3933 25.9429 62.3933 25.8541V24.1328C62.3933 24.0441 62.4411 24.0031 62.5299 24.0031H70.8768C71.7579 24.0031 72.5093 23.6889 73.1377 23.0605C73.7661 22.4321 74.0803 21.6739 74.0803 20.7996C74.0803 19.9184 73.7661 19.1602 73.1377 18.5318C72.5093 17.9034 71.7579 17.5892 70.8768 17.5892H62.5299C62.4411 17.5892 62.3933 17.5483 62.3933 17.4595V15.7382C62.3933 15.6494 62.4411 15.6016 62.5299 15.6016H70.8768C71.8057 15.6016 72.6664 15.8338 73.4724 16.2983C74.2715 16.7627 74.9068 17.398 75.3644 18.1903C75.8357 18.9895 76.0679 19.857 76.0679 20.7996C76.0679 21.7353 75.8357 22.6028 75.3644 23.402C74.9068 24.1943 74.2715 24.8296 73.4724 25.294C72.6664 25.7585 71.8057 25.9907 70.8768 25.9907ZM105.521 25.9907H103.281C103.24 25.9907 103.205 25.9839 103.171 25.9771C103.137 25.9634 103.103 25.9429 103.076 25.9156C103.042 25.8815 103.021 25.861 103.007 25.8473C102.994 25.8336 102.973 25.7995 102.939 25.7517C102.912 25.7039 102.891 25.6697 102.884 25.6629C102.55 25.1779 102.065 24.488 101.443 23.5932C100.822 22.6984 100.439 22.1452 100.289 21.9403L100.186 21.79H92.2699V19.8023H102.864C103.171 19.8023 103.431 19.693 103.649 19.4745C103.861 19.2559 103.964 18.9963 103.964 18.6958C103.964 18.3952 103.861 18.1357 103.649 17.9171C103.431 17.6985 103.171 17.5892 102.864 17.5892H92.2699V15.7382C92.2699 15.6494 92.3109 15.6016 92.3997 15.6016H102.85C103.417 15.6016 103.936 15.745 104.408 16.0182C104.886 16.2983 105.261 16.674 105.535 17.1453C105.815 17.6234 105.951 18.1357 105.951 18.6889C105.951 19.4813 105.685 20.1712 105.152 20.7586C104.619 21.346 103.964 21.6875 103.192 21.7763L102.618 21.8378L105.521 25.9907ZM135.288 25.9907H122.215C122.126 25.9907 122.078 25.9429 122.078 25.8541V24.1328C122.078 24.0441 122.133 24.0031 122.228 24.0031H135.288C135.377 24.0031 135.418 24.0441 135.418 24.1328V25.8541C135.418 25.9429 135.377 25.9907 135.288 25.9907ZM124.066 21.79H122.228C122.133 21.79 122.078 21.749 122.078 21.6534V19.9321C122.078 19.8433 122.133 19.8023 122.228 19.8023H132.46C132.549 19.8023 132.59 19.8433 132.59 19.9321V21.6534C132.59 21.749 132.549 21.79 132.46 21.79H124.066ZM135.418 15.7382V17.4595C135.418 17.5483 135.377 17.5892 135.288 17.5892H122.215C122.126 17.5892 122.078 17.5483 122.078 17.4595V15.7382C122.078 15.6494 122.126 15.6016 122.215 15.6016H135.288C135.377 15.6016 135.418 15.6494 135.418 15.7382ZM161.169 24.1055C160.452 24.5495 159.851 25.1779 159.379 25.9907C158.915 25.1779 158.314 24.5495 157.583 24.1055C158.314 23.6615 158.915 23.0331 159.379 22.2203C159.851 23.0331 160.452 23.6615 161.169 24.1055ZM160.841 15.9294L167.904 25.9907H165.677C165.629 25.9907 165.588 25.9839 165.561 25.9703C165.527 25.9634 165.5 25.9429 165.472 25.9156C165.438 25.8815 165.418 25.861 165.404 25.8473C165.39 25.8336 165.363 25.7995 165.336 25.7517C165.308 25.7039 165.281 25.6697 165.26 25.6629C162.651 21.9266 160.691 19.1261 159.379 17.2682L159.093 17.6507C158.471 18.5387 157.542 19.8775 156.292 21.6602C155.049 23.4361 154.113 24.7749 153.492 25.6629C153.485 25.6697 153.464 25.7039 153.43 25.7517C153.403 25.7995 153.382 25.8336 153.369 25.8473C153.348 25.861 153.328 25.8815 153.3 25.9156C153.266 25.9429 153.239 25.9634 153.205 25.9703C153.171 25.9839 153.13 25.9907 153.089 25.9907H150.855L157.911 15.9294C158.068 15.7109 158.198 15.6016 158.314 15.6016H160.459C160.568 15.6016 160.698 15.7109 160.841 15.9294ZM201.059 15.8065C201.121 15.7177 201.059 15.6016 200.957 15.6016H198.928C198.901 15.6016 198.873 15.6084 198.846 15.6152C198.826 15.6152 198.798 15.6221 198.778 15.6357C198.764 15.6425 198.737 15.6562 198.716 15.6699C198.696 15.6835 198.689 15.6972 198.675 15.704C198.668 15.7177 198.655 15.7313 198.641 15.7518C198.627 15.7723 198.614 15.7928 198.6 15.8065C198.586 15.827 198.58 15.8543 198.566 15.8748C198.552 15.9021 198.532 15.9158 198.511 15.9294L192.63 24.3241L186.742 15.9294C186.722 15.9158 186.701 15.8953 186.667 15.8406C186.64 15.7928 186.619 15.7587 186.606 15.745C186.585 15.7313 186.565 15.704 186.537 15.6835C186.524 15.6494 186.49 15.6289 186.456 15.6152C186.415 15.6084 186.374 15.6016 186.326 15.6016H184.044V25.8541C184.044 25.9293 184.106 25.9839 184.181 25.9839H185.895C185.984 25.9839 186.032 25.9429 186.032 25.8541V18.3543L191.155 25.6629C191.305 25.8815 191.435 25.9839 191.544 25.9839H193.71C193.819 25.9839 193.949 25.8815 194.099 25.6629L201.059 15.8065ZM109.005 35.8267H109.981C110.002 35.8267 110.022 35.8266 110.036 35.8335C110.05 35.8335 110.063 35.8471 110.077 35.8608C110.084 35.8676 110.091 35.8813 110.097 35.8881C110.104 35.895 110.111 35.9086 110.125 35.9291C110.138 35.9496 110.152 35.9633 110.159 35.9633L112.679 39.5629L115.207 35.9633C115.213 35.9633 115.22 35.9496 115.227 35.9428C115.234 35.9359 115.241 35.9223 115.248 35.9154C115.248 35.9086 115.254 35.9018 115.261 35.8881C115.268 35.8813 115.268 35.8745 115.275 35.8676C115.282 35.8676 115.289 35.8608 115.295 35.854C115.302 35.8471 115.309 35.8403 115.323 35.8403C115.33 35.8335 115.336 35.8335 115.35 35.8267H116.361V40.2187C116.361 40.2596 116.347 40.2801 116.306 40.2801H115.569C115.528 40.2801 115.514 40.2596 115.514 40.2187V37.0015L113.315 40.1367C113.246 40.2323 113.192 40.2801 113.144 40.2801H112.222C112.174 40.2801 112.119 40.2323 112.051 40.1367L109.852 37.0015V40.2187C109.852 40.2596 109.838 40.2801 109.797 40.2801H109.059C109.018 40.2801 109.005 40.2596 109.005 40.2187V35.8267ZM126.9 36.619C126.9 36.66 126.88 36.6805 126.846 36.6805H122.03V37.6231H125.63C125.671 37.6231 125.685 37.6436 125.685 37.6845V38.4222C125.685 38.4564 125.671 38.4769 125.63 38.4769H122.03V39.4263H126.846C126.88 39.4263 126.9 39.4468 126.9 39.481V40.2187C126.9 40.2596 126.88 40.2801 126.846 40.2801H121.238C121.204 40.2801 121.183 40.2596 121.183 40.2187V35.8813C121.183 35.8471 121.204 35.8267 121.238 35.8267H126.846C126.88 35.8267 126.9 35.8471 126.9 35.8813V36.619ZM132.344 36.6805V39.4263H135.124C135.507 39.4263 135.828 39.2897 136.094 39.0233C136.368 38.7569 136.497 38.4291 136.497 38.0534C136.497 37.6777 136.368 37.3499 136.094 37.0835C135.828 36.8102 135.507 36.6805 135.124 36.6805H132.344ZM131.545 35.8267H135.124C135.527 35.8267 135.896 35.9223 136.238 36.1272C136.586 36.3253 136.852 36.5917 137.051 36.9332C137.249 37.2747 137.351 37.6504 137.351 38.0534C137.351 38.4564 137.249 38.8252 137.051 39.1668C136.852 39.5083 136.586 39.7815 136.238 39.9796C135.896 40.1777 135.527 40.2801 135.124 40.2801H131.532C131.504 40.2801 131.491 40.2596 131.491 40.2323V35.8813C131.491 35.8471 131.511 35.8267 131.545 35.8267ZM142.01 40.2801C141.969 40.2801 141.955 40.2596 141.955 40.2187V35.8813C141.955 35.8471 141.969 35.8267 142.01 35.8267H142.747C142.781 35.8267 142.809 35.8471 142.809 35.8813V40.2187C142.809 40.2596 142.781 40.2801 142.747 40.2801H142.01ZM149.441 38.5179H152.214L150.828 36.537L150.705 36.701L149.441 38.5179ZM151.456 35.9633L154.482 40.2801H153.526C153.505 40.2801 153.492 40.2733 153.478 40.2733C153.464 40.2665 153.451 40.2596 153.437 40.246L153.41 40.2187C153.403 40.2118 153.396 40.1982 153.382 40.1777C153.369 40.1572 153.355 40.1435 153.348 40.1367L152.815 39.3648H148.84L148.3 40.1367C148.3 40.1435 148.294 40.1572 148.273 40.1777C148.266 40.1982 148.253 40.2118 148.246 40.2187C148.239 40.2255 148.232 40.2323 148.218 40.246C148.205 40.2596 148.191 40.2665 148.177 40.2733C148.164 40.2733 148.15 40.2801 148.13 40.2801H147.173L150.199 35.9633C150.268 35.8745 150.322 35.8267 150.37 35.8267H151.292C151.333 35.8267 151.395 35.8745 151.456 35.9633ZM49.873 16.6671C50.0028 17.3024 49.9891 17.2955 49.4085 17.3433C47.6531 17.5004 45.9045 17.6439 44.1559 17.8283C42.4141 18.0059 40.6792 18.1835 38.9511 18.4226C36.7994 18.7231 34.6478 19.0578 32.5099 19.4335C29.0537 20.0414 25.6384 20.7927 22.271 21.7695C18.7123 22.8077 15.2288 24.0167 11.9911 25.861C10.3723 26.7899 8.85591 27.8555 7.70156 29.3582C6.98435 30.3008 6.53354 31.339 6.56086 32.5548C6.58135 33.7638 7.07998 34.7816 7.81767 35.7037C8.95153 37.1244 10.4133 38.149 11.9706 39.0438C14.7984 40.6695 17.838 41.7897 20.9459 42.7528C21.95 43.0601 22.9677 43.3402 23.9923 43.5998C22.9404 43.2104 21.8817 42.8416 20.8366 42.4317C18.6167 41.5574 16.4651 40.5465 14.573 39.0711C13.89 38.5384 13.2411 37.9373 12.6878 37.2815C10.8641 35.1163 10.9255 32.63 12.7766 30.4784C14.1017 28.9483 15.7684 27.8828 17.5375 26.9538C20.5087 25.4033 23.6576 24.3514 26.8679 23.4635C30.57 22.4321 34.32 21.6465 38.1177 21.0933C40.6792 20.7176 43.2474 20.4034 45.8157 20.0892C47.1613 19.9253 48.5137 19.816 49.9003 19.6862V20.3283C49.4564 20.3692 48.9987 20.4171 48.5479 20.4649C46.4304 20.6834 44.3062 20.861 42.1955 21.1343C35.4265 22.0222 28.7326 23.2381 22.2778 25.5604C19.8325 26.4347 17.4623 27.4866 15.3312 28.9893C14.4637 29.6041 13.6646 30.3008 13.0225 31.1614C11.6154 33.033 11.6496 35.0275 13.1181 36.8581C14.0607 38.0466 15.2561 38.9277 16.5402 39.6927C19.088 41.2159 21.8407 42.2541 24.6617 43.1421C28.4048 44.317 32.223 45.1913 36.0959 45.8265C38.6505 46.2432 41.2119 46.6188 43.7802 46.9467C45.7474 47.1994 47.7282 47.3497 49.7022 47.5409C49.7569 47.5478 49.8184 47.5546 49.9003 47.5683V48.2377C49.3539 48.2035 48.8211 48.183 48.2952 48.1352C46.5534 47.9781 44.8116 47.8347 43.0767 47.6366C40.9387 47.3907 38.8008 47.1311 36.6833 46.7964C33.9853 46.3661 31.2941 45.9016 28.6234 45.3484C23.8352 44.3511 19.129 43.0601 14.6482 41.0725C12.6605 40.1913 10.7548 39.1736 9.06082 37.7938C7.90647 36.8512 6.88873 35.7925 6.30813 34.3786C5.55678 32.5548 5.89831 30.8609 7.00485 29.2899C8.28215 27.473 10.0649 26.2503 11.9706 25.1847C15.0102 23.484 18.2752 22.3159 21.6084 21.3255C25.7272 20.1097 29.9143 19.1876 34.1492 18.5182C36.779 18.1084 39.4087 17.7327 42.0521 17.398C43.8553 17.1726 45.6654 17.0428 47.4823 16.872C48.2747 16.7969 49.067 16.7354 49.873 16.6671Z" fill="white" style="fill:white;fill:white;fill-opacity:1;"/>
  <path d="M49.9135 22.2463V22.8474C49.2783 22.9157 48.6499 22.9703 48.0283 23.0455C45.863 23.3119 43.6773 23.5099 41.5257 23.872C38.6227 24.3638 35.7334 24.917 32.8646 25.5796C29.4084 26.3651 26.0341 27.4443 22.8648 29.07C21.3211 29.8623 19.8594 30.7776 18.7255 32.1232C18.0015 32.9907 17.5438 33.9606 17.6326 35.1286C17.7078 36.1805 18.22 37.0207 18.8963 37.7857C19.873 38.8717 21.0752 39.6641 22.3388 40.3608C25.0232 41.8293 27.9057 42.7924 30.9111 43.6394C29.8114 43.1681 28.7732 42.7514 27.7622 42.2801C26.2254 41.5561 24.7637 40.7023 23.5683 39.4728C23.2473 39.1449 22.9468 38.7829 22.7009 38.3936C21.7856 36.9524 21.7924 35.4975 22.7077 34.0631C23.3702 33.0112 24.2992 32.2393 25.3238 31.5631C27.4207 30.1697 29.7363 29.2476 32.1133 28.4689C35.2485 27.4443 38.4451 26.6998 41.6964 26.1738C43.971 25.805 46.2592 25.5045 48.5338 25.1834C48.9846 25.1219 49.4286 25.1015 49.9067 25.0536V25.6889C49.292 25.7572 48.6704 25.8391 48.0488 25.9075C44.5926 26.2968 41.1568 26.8501 37.7621 27.6082C34.743 28.2913 31.7717 29.1178 28.9234 30.3404C27.3592 31.0167 25.8497 31.8022 24.5383 32.9155C23.7459 33.5986 23.056 34.3704 22.7828 35.4223C22.4823 36.5562 22.7965 37.5603 23.5 38.4619C24.4495 39.6846 25.7131 40.511 27.0519 41.2282C29.463 42.5192 32.045 43.3799 34.6747 44.0971C37.9602 44.9987 41.3071 45.6476 44.6882 46.1189C46.4163 46.3579 48.1444 46.5765 49.8999 46.8019V47.485C49.3671 47.444 48.848 47.4098 48.3357 47.3484C46.5393 47.1435 44.736 46.9864 42.9533 46.6926C39.9957 46.2008 37.0381 45.6749 34.0941 45.0602C30.9248 44.3976 27.8169 43.4618 24.8183 42.205C22.8033 41.3649 20.8634 40.3813 19.2036 38.9264C18.2815 38.1272 17.5233 37.2119 17.1545 36.0234C16.7583 34.7598 17.0179 33.5986 17.6941 32.5057C18.3157 31.5085 19.1695 30.7366 20.1121 30.0536C22.1749 28.5645 24.4836 27.5604 26.8606 26.7134C30.5149 25.402 34.2785 24.4799 38.0899 23.8173C40.7265 23.3597 43.3699 22.9908 46.0133 22.6152C47.1813 22.4512 48.3562 22.3624 49.5242 22.2463C49.6403 22.2326 49.7564 22.2463 49.9135 22.2463Z" fill="white" style="fill:white;fill:white;fill-opacity:1;"/>
  <path d="M49.8865 27.5128C49.9821 28.1549 49.9821 28.148 49.5176 28.2095C45.9453 28.674 42.4003 29.2614 38.9167 30.204C36.3553 30.8939 33.828 31.7067 31.5329 33.0728C30.8021 33.51 30.0985 34.0223 29.4906 34.6165C27.8855 36.1602 27.906 37.902 29.477 39.4935C30.3718 40.4019 31.451 41.044 32.5848 41.6109C34.8662 42.738 37.2774 43.4757 39.6612 44.0904C38.7186 43.6669 37.7145 43.2434 36.7309 42.7585C35.6927 42.2462 34.7364 41.5973 33.9509 40.7298C32.7146 39.3637 32.6873 37.7995 33.869 36.3788C34.511 35.6138 35.317 35.04 36.1777 34.5482C38.2883 33.3392 40.5697 32.5469 42.9194 31.9936C45.1803 31.4608 47.4821 31.0647 49.7635 30.6138C49.7977 30.607 49.8318 30.6207 49.9001 30.6207V31.2696C49.1761 31.3925 48.4521 31.5018 47.728 31.6384C44.2445 32.2805 40.7951 33.066 37.5574 34.5687C36.3758 35.122 35.2487 35.764 34.3744 36.7613C33.9441 37.2599 33.6436 37.82 33.6436 38.4962C33.6436 39.2476 33.9919 39.8418 34.4837 40.3678C35.3922 41.3514 36.5465 41.9798 37.735 42.5262C39.7637 43.462 41.8948 44.0836 44.0532 44.6095C44.0737 44.6163 44.1011 44.6095 44.142 44.6027C43.5341 44.3295 42.9262 44.0767 42.3388 43.7967C41.2801 43.2912 40.2828 42.6902 39.5451 41.7475C38.7255 40.7025 38.7255 39.555 39.5451 38.5031C40.0915 37.7927 40.8088 37.2872 41.5806 36.8501C43.4931 35.7709 45.5696 35.1356 47.6871 34.6097C48.4111 34.4321 49.142 34.2818 49.866 34.1247C50.0163 34.7599 49.9889 34.7873 49.3264 34.9239C47.2021 35.3679 45.1051 35.887 43.1311 36.7954C42.2705 37.1916 41.4918 37.7449 40.6721 38.2298C40.6243 38.2572 40.5833 38.305 40.5355 38.3391C39.2446 39.5003 39.2241 40.8254 40.5697 41.9115C41.2801 42.4784 42.0861 42.9565 42.8989 43.3459C44.627 44.186 46.4781 44.6778 48.4179 45.1286C47.7895 44.8213 47.2089 44.5959 46.6898 44.268C46.1229 43.8991 45.5628 43.4961 45.112 43.0044C44.3538 42.1915 44.3743 41.1738 45.0915 40.3268C45.351 40.0194 45.6584 39.7462 45.9794 39.5071C47.1474 38.6533 48.4862 38.1684 49.8523 37.738C50.0299 38.2572 49.9821 38.3596 49.5245 38.5167C48.3701 38.9197 47.2226 39.3569 46.2322 40.1014C46.116 40.1902 46.0068 40.279 45.9043 40.3746C44.9617 41.2557 44.948 42.1027 45.9248 42.9565C46.3415 43.3186 46.8196 43.6396 47.3114 43.8787C48.0491 44.2407 48.8141 44.5344 49.5859 44.8144C49.866 44.9169 49.9548 45.0398 49.9343 45.3199C49.9138 45.7229 49.9275 46.1259 49.9275 46.5767C49.2922 46.4947 48.6843 46.4538 48.0969 46.3513C45.4262 45.8595 42.7418 45.4223 40.0847 44.8349C37.332 44.227 34.6545 43.3527 32.1272 42.0617C30.8567 41.406 29.6477 40.641 28.6983 39.5413C27.3254 37.9635 27.3185 36.167 28.6778 34.5755C29.5316 33.5783 30.5972 32.8611 31.731 32.2463C34.0875 30.969 36.6148 30.1425 39.1899 29.4731C42.1817 28.6876 45.2144 28.1275 48.2813 27.7314C48.8073 27.6631 49.34 27.5879 49.8865 27.5128ZM0.0580337 34.3706C2.48969 37.6492 5.95958 39.3569 9.53193 40.8801C13.5551 42.5877 17.7422 43.8104 22.0044 44.7325C25.4606 45.4838 28.9442 46.1259 32.4277 46.727C34.634 47.1026 36.8676 47.3554 39.1011 47.6149C41.4235 47.8813 43.7595 48.0999 46.0887 48.3116C47.2021 48.4141 48.3155 48.4756 49.4357 48.5439C49.9275 48.5712 49.9275 48.5575 49.9275 49.0698V49.507C49.2512 49.4728 48.616 49.4523 47.9808 49.4114C46.6966 49.3294 45.4125 49.2474 44.1352 49.1518C42.4754 49.022 40.8156 48.8854 39.1626 48.7351C37.9195 48.6258 36.6763 48.5029 35.4332 48.3663C33.91 48.2024 32.3868 48.0453 30.8704 47.8472C29.0876 47.6149 27.3117 47.3759 25.5426 47.0822C22.4279 46.5562 19.3132 46.0303 16.219 45.4155C11.7928 44.5275 7.4213 43.4074 3.13176 42.0003C2.24379 41.7066 1.35583 41.3924 0.474694 41.085C-0.0307636 40.9074 -0.0307636 40.9006 0.0648642 40.3063C10.2355 43.9743 20.7886 45.8868 31.4646 47.2461C29.9619 46.9729 28.4592 46.7201 26.9565 46.4333C20.9115 45.2652 14.9417 43.7967 9.23822 41.4128C6.66995 40.3473 4.20414 39.0905 2.03205 37.3214C1.47878 36.8706 1.00747 36.3378 0.467863 35.8665C0.00338972 35.4635 -0.0375941 34.9649 0.0580337 34.3706ZM0.0580337 28.3393C-0.0171022 27.7792 -0.0034403 27.342 0.385897 26.9185C1.95691 25.2109 3.85579 23.9541 5.88444 22.8749C9.26554 21.0716 12.8584 19.808 16.5264 18.7424C20.5563 17.5676 24.641 16.6386 28.7803 15.9419C31.3485 15.5116 33.9373 15.1018 36.5192 14.7534C38.5479 14.4734 40.5765 14.2685 42.612 14.0772C44.9685 13.8586 47.3319 13.6947 49.6884 13.5103C49.7499 13.5035 49.8045 13.5103 49.9001 13.5103V14.1114C49.2512 14.1592 48.5955 14.207 47.9398 14.2616C46.3005 14.3982 44.668 14.5212 43.0355 14.6783C41.3689 14.8354 39.6954 14.9993 38.0356 15.2042C36.0889 15.4433 34.1422 15.6824 32.2092 16.0102C29.4018 16.4815 26.5945 16.9733 23.8077 17.5608C18.5618 18.6673 13.398 20.0881 8.48003 22.2738C6.3011 23.2437 4.19048 24.3434 2.36674 25.9076C1.60173 26.5565 0.959658 27.3557 0.269779 28.0866C0.208303 28.1549 0.15366 28.2232 0.0580337 28.3393ZM49.8933 9.94477C49.9753 10.5937 49.9753 10.58 49.381 10.6142C47.4617 10.7439 45.5423 10.8737 43.6229 11.0308C41.765 11.1879 39.9071 11.345 38.0492 11.5568C35.8703 11.8027 33.6845 12.0691 31.5125 12.3969C28.8759 12.7931 26.2325 13.2029 23.6096 13.7015C17.0181 14.9584 10.5223 16.5567 4.33392 19.2001C3.00198 19.767 1.72467 20.4637 0.42005 21.099C0.310762 21.1536 0.194645 21.2151 0.0785252 21.2766C-0.0444228 20.6823 -0.0375945 20.655 0.433711 20.4023C3.63721 18.6605 7.0388 17.3763 10.5155 16.2835C15.3993 14.7534 20.3787 13.5991 25.4265 12.7248C28.104 12.2671 30.7952 11.8505 33.4865 11.468C35.399 11.1947 37.3252 10.9967 39.2514 10.7986C41.2118 10.5937 43.1789 10.4161 45.1461 10.2453C46.6283 10.1292 48.1105 10.0472 49.5928 9.94477C49.6884 9.93794 49.784 9.94477 49.8933 9.94477ZM0.0716947 9.92428C-0.0375932 9.33686 -0.0375932 9.33002 0.454202 9.18658C4.85987 7.91611 9.31335 6.85056 13.8215 6.01041C16.6698 5.47763 19.5249 4.98583 22.3869 4.53502C24.5795 4.18666 26.7858 3.92027 28.9852 3.64705C30.8157 3.42165 32.6463 3.21673 34.4769 3.02548C35.9181 2.87521 37.3662 2.76592 38.8142 2.64297C40.5424 2.49953 42.2705 2.36292 44.0054 2.23997C45.4398 2.14435 46.8811 2.08287 48.3155 2.00091C48.8346 1.97359 49.3537 1.94626 49.9001 1.91211V2.55418C49.1624 2.59516 48.4316 2.62931 47.7007 2.67712C45.5628 2.81373 43.4248 2.94351 41.2869 3.09378C39.4631 3.2304 37.6394 3.37384 35.8157 3.55143C34.1149 3.70853 32.4141 3.89295 30.7133 4.09104C28.9578 4.29595 27.1956 4.5077 25.447 4.75359C23.2544 5.06097 21.0686 5.36151 18.8965 5.75085C15.8775 6.27679 12.8584 6.8164 9.87345 7.47896C6.72459 8.1825 3.60989 9.03631 0.474694 9.82182C0.344914 9.85597 0.208305 9.89013 0.0716947 9.92428ZM49.9275 5.88063V6.31095C49.9275 6.35876 49.907 6.39974 49.8933 6.46805C49.2512 6.51586 48.6092 6.55684 47.9739 6.59783C46.0477 6.72761 44.1284 6.82323 42.2022 6.98033C40.0369 7.15793 37.8716 7.3765 35.7132 7.60191C33.787 7.79999 31.8608 8.01174 29.9414 8.2713C27.8103 8.55135 25.6792 8.84506 23.5618 9.21391C20.5973 9.73303 17.6329 10.2863 14.6821 10.9079C9.83247 11.9256 5.06479 13.2371 0.399558 14.931C0.29027 14.972 0.180982 15.0062 0.0648642 15.0403C-0.0375936 14.4461 -0.030764 14.4392 0.495185 14.248C5.17407 12.5608 9.96225 11.2426 14.8256 10.2385C18.234 9.52811 21.6697 8.90653 25.1123 8.32594C27.4278 7.92977 29.7638 7.65655 32.0999 7.36284C34.1832 7.10328 36.2733 6.87788 38.3703 6.67296C40.2213 6.48854 42.0861 6.35876 43.9508 6.21532C45.5969 6.09237 47.2431 5.98991 48.8961 5.88746C49.2239 5.86696 49.5518 5.88063 49.9275 5.88063Z" fill="white" style="fill:white;fill:white;fill-opacity:1;"/>
  <path d="M0.0579238 43.3734C16.4511 47.3214 33.1107 49.0905 49.9 49.8623V49.9853C49.7839 49.9989 49.661 50.0126 49.5448 50.0126C46.8195 50.0126 44.0941 50.0536 41.3687 49.9989C39.8387 49.9716 38.3087 49.8008 36.7787 49.6779C35.5833 49.5823 34.388 49.4798 33.1926 49.3637C31.6489 49.2134 30.1121 49.0563 28.5821 48.8924C27.1135 48.7285 25.6518 48.5509 24.1901 48.3664C22.3663 48.1274 20.5426 47.902 18.7188 47.6219C16.3077 47.2462 13.8828 46.8911 11.4853 46.4198C7.74906 45.6821 4.02644 44.8556 0.303821 44.0632C-0.00355025 43.9949 -0.0172121 43.9539 0.0579238 43.3734ZM0.0579238 4.98598C-0.0240421 4.35758 -0.0172128 4.35758 0.542888 4.22097C5.25593 3.08027 9.99629 2.11034 14.7776 1.35216C17.5918 0.908176 20.406 0.423212 23.2338 0.115841C24.8048 -0.0617532 26.4168 0.0816885 28.0083 0.0885186C28.0288 0.0885186 28.0493 0.10901 28.1244 0.143163C18.6505 1.22238 9.29958 2.71826 0.0579238 4.98598ZM23.4045 49.9853C21.3691 49.9853 19.3336 50.0809 17.3117 49.9511C15.4265 49.835 13.5618 49.4866 11.6971 49.2203C10.3651 49.029 9.04002 48.8173 7.72174 48.5987C5.65893 48.2708 3.59612 47.9225 1.53331 47.5741C1.21228 47.5195 0.884413 47.458 0.55655 47.3965C-0.0377034 47.2736 -0.0786854 47.2053 0.0784146 46.5632C7.81053 48.0044 15.5905 49.1041 23.4045 49.9853ZM0.0647545 1.1814C-0.0308733 0.532502 -0.0172124 0.566653 0.529227 0.402721C2.00461 -0.0412604 3.51415 0.0816876 5.01686 0.0748576C5.05784 0.0748576 5.09883 0.0953495 5.23544 0.129502C3.45951 0.491517 1.77238 0.833044 0.0647545 1.1814ZM3.34339 49.9853H0.051093V49.35C1.16446 49.5481 2.25051 49.7394 3.34339 49.9306V49.9853Z" fill="white" style="fill:white;fill:white;fill-opacity:1;"/>
</svg>