<svg width="119" height="30" viewBox="0 0 119 30" fill="none" xmlns="http://www.w3.org/2000/svg">
<g style="mix-blend-mode:difference">
<path d="M40.3468 13.3633H35.052C34.9952 13.3633 34.9668 13.3368 34.9668 13.2839V12.268C34.9668 12.2151 34.9952 12.1886 35.052 12.1886H40.3468C40.9043 12.1886 41.3837 12.0033 41.7815 11.6327C42.1792 11.2621 42.3781 10.8154 42.3781 10.2959C42.3781 9.77639 42.1792 9.32969 41.7815 8.95909C41.3837 8.58849 40.9043 8.40319 40.3468 8.40319H35.052C34.9952 8.40319 34.9668 8.37671 34.9668 8.32377V7.30793C34.9668 7.25499 34.9952 7.22852 35.052 7.22852H40.3468C40.9363 7.22852 41.4832 7.36749 41.991 7.64213C42.4988 7.91677 42.9001 8.29068 43.1948 8.76055C43.4896 9.23042 43.6387 9.7433 43.6387 10.2992C43.6387 10.8551 43.4896 11.368 43.1948 11.8379C42.9001 12.3077 42.4988 12.6816 41.991 12.9563C41.4832 13.2309 40.9327 13.3666 40.3468 13.3666M38.4079 11.411C38.1131 10.9312 37.7331 10.5606 37.2679 10.2992C37.7331 10.0345 38.1096 9.66389 38.4079 9.1874C38.7097 9.6672 39.0861 10.0378 39.5442 10.2992C39.0861 10.5606 38.7062 10.9345 38.4079 11.411ZM38.4079 9.18409C38.7026 9.66389 39.0826 10.0345 39.5478 10.2959C39.0826 10.5606 38.7062 10.9312 38.4079 11.4077C38.106 10.9279 37.7296 10.5573 37.2715 10.2959C37.7296 10.0345 38.1096 9.66058 38.4079 9.18409Z" fill="white" style="fill:white;fill:white;fill-opacity:1;"/>
<path d="M40.3468 13.3633H35.052C34.9952 13.3633 34.9668 13.3368 34.9668 13.2839V12.268C34.9668 12.2151 34.9952 12.1886 35.052 12.1886H40.3468C40.9043 12.1886 41.3837 12.0033 41.7815 11.6327C42.1792 11.2621 42.3781 10.8154 42.3781 10.2959C42.3781 9.77639 42.1792 9.32969 41.7815 8.95909C41.3837 8.58849 40.9043 8.40319 40.3468 8.40319H35.052C34.9952 8.40319 34.9668 8.37671 34.9668 8.32377V7.30793C34.9668 7.25499 34.9952 7.22852 35.052 7.22852H40.3468C40.9363 7.22852 41.4832 7.36749 41.991 7.64213C42.4988 7.91677 42.9001 8.29068 43.1948 8.76055C43.4896 9.23042 43.6387 9.7433 43.6387 10.2992C43.6387 10.8551 43.4896 11.368 43.1948 11.8379C42.9001 12.3077 42.4988 12.6816 41.991 12.9563C41.4832 13.2309 40.9327 13.3666 40.3468 13.3666M38.4079 11.411C38.1131 10.9312 37.7331 10.5606 37.2679 10.2992C37.7331 10.0345 38.1096 9.66389 38.4079 9.1874C38.7097 9.6672 39.0861 10.0378 39.5442 10.2992C39.0861 10.5606 38.7062 10.9345 38.4079 11.411ZM38.4079 9.18409C38.7026 9.66389 39.0826 10.0345 39.5478 10.2959C39.0826 10.5606 38.7062 10.9312 38.4079 11.4077C38.106 10.9279 37.7296 10.5573 37.2715 10.2959C37.7296 10.0345 38.1096 9.66058 38.4079 9.18409Z" stroke="white" style="stroke:white;stroke:white;stroke-opacity:1;" stroke-width="0.1" stroke-miterlimit="10"/>
<path d="M59.3798 13.3639H57.9594C57.9345 13.3639 57.9097 13.3639 57.8883 13.3539C57.867 13.3473 57.8457 13.3374 57.828 13.3209C57.8102 13.3043 57.796 13.2911 57.7854 13.2811C57.7747 13.2712 57.7605 13.2547 57.7428 13.2249C57.725 13.1951 57.7108 13.1786 57.7072 13.172C57.4942 12.8841 57.1888 12.4771 56.7946 11.9476C56.4004 11.4182 56.1554 11.0939 56.0595 10.9715L55.992 10.8855H50.9707V9.71081H57.6966C57.8919 9.71081 58.0553 9.64794 58.1902 9.51889C58.3251 9.38984 58.3926 9.23763 58.3926 9.05895C58.3926 8.88027 58.3251 8.72806 58.1902 8.59901C58.0553 8.46996 57.8884 8.40709 57.6966 8.40709H50.9707V7.31184C50.9707 7.25889 50.9991 7.23242 51.0559 7.23242H57.6859C58.0446 7.23242 58.3713 7.31514 58.6732 7.47728C58.975 7.64273 59.2129 7.86443 59.3869 8.14238C59.5609 8.42364 59.6497 8.72806 59.6497 9.05564C59.6497 9.5222 59.4828 9.9292 59.1419 10.2766C58.8045 10.6241 58.3891 10.8259 57.899 10.8789L57.5332 10.912L59.3763 13.3672L59.3798 13.3639Z" fill="white" stroke="white" style="fill:white;fill:white;fill-opacity:1;stroke:white;stroke:white;stroke-opacity:1;" stroke-width="0.1" stroke-miterlimit="10"/>
<path d="M75.4474 7.30793V8.32377C75.4474 8.37671 75.419 8.40319 75.3622 8.40319H67.0667C67.0099 8.40319 66.9814 8.37671 66.9814 8.32377V7.30793C66.9814 7.25499 67.0099 7.22852 67.0667 7.22852H75.3622C75.419 7.22852 75.4474 7.25499 75.4474 7.30793ZM68.2421 10.8849H67.0738C67.0099 10.8849 66.9814 10.8584 66.9814 10.8055V9.78963C66.9814 9.73669 67.0134 9.71021 67.0738 9.71021H73.5653C73.6221 9.71021 73.6505 9.73669 73.6505 9.78963V10.8055C73.6505 10.8584 73.6221 10.8849 73.5653 10.8849H68.2421ZM75.3622 13.3633H67.0667C67.0099 13.3633 66.9814 13.3368 66.9814 13.2839V12.268C66.9814 12.2151 67.0134 12.1886 67.0738 12.1886H75.3586C75.4154 12.1886 75.4438 12.2151 75.4438 12.268V13.2839C75.4438 13.3368 75.4154 13.3633 75.3586 13.3633" fill="white" style="fill:white;fill:white;fill-opacity:1;"/>
<path d="M75.3622 13.3633H67.0667C67.0099 13.3633 66.9814 13.3368 66.9814 13.2839V12.268C66.9814 12.2151 67.0134 12.1886 67.0738 12.1886H75.3586C75.4154 12.1886 75.4438 12.2151 75.4438 12.268V13.2839C75.4438 13.3368 75.4154 13.3633 75.3586 13.3633M75.4474 7.30793V8.32377C75.4474 8.37671 75.419 8.40319 75.3622 8.40319H67.0667C67.0099 8.40319 66.9814 8.37671 66.9814 8.32377V7.30793C66.9814 7.25499 67.0099 7.22852 67.0667 7.22852H75.3622C75.419 7.22852 75.4474 7.25499 75.4474 7.30793ZM68.2421 10.8849H67.0738C67.0099 10.8849 66.9814 10.8584 66.9814 10.8055V9.78963C66.9814 9.73669 67.0134 9.71021 67.0738 9.71021H73.5653C73.6221 9.71021 73.6505 9.73669 73.6505 9.78963V10.8055C73.6505 10.8584 73.6221 10.8849 73.5653 10.8849H68.2421Z" stroke="white" style="stroke:white;stroke:white;stroke-opacity:1;" stroke-width="0.1" stroke-miterlimit="10"/>
<path d="M89.1176 7.42043L93.5956 13.36H92.1858C92.1539 13.36 92.129 13.36 92.1112 13.3533C92.0935 13.3467 92.0722 13.3368 92.0544 13.3203C92.0367 13.3037 92.0225 13.2905 92.0118 13.2805C92.0012 13.2739 91.987 13.2541 91.9692 13.2243C91.9514 13.1945 91.9372 13.178 91.923 13.1714C90.2682 10.961 89.0217 9.30983 88.1872 8.21127L88.0097 8.43958C87.6119 8.9657 87.0224 9.75323 86.2305 10.8055C85.4422 11.8577 84.8491 12.6452 84.4514 13.1714C84.4443 13.178 84.4337 13.1945 84.4159 13.2243C84.3981 13.2541 84.3839 13.2739 84.3733 13.2805C84.3626 13.2905 84.3484 13.3037 84.3307 13.3203C84.3129 13.3368 84.2916 13.35 84.2703 13.3533C84.249 13.36 84.2241 13.36 84.1993 13.36H82.7788L87.2568 7.42043C87.3563 7.29139 87.4415 7.22852 87.5089 7.22852H88.8726C88.9401 7.22852 89.0217 7.29139 89.1176 7.42043ZM89.3236 12.2482C88.8655 12.5096 88.4855 12.8835 88.1837 13.36C87.8889 12.8802 87.509 12.5096 87.0473 12.2482C87.5125 11.9868 87.8925 11.6162 88.1837 11.1364C88.4855 11.6162 88.8655 11.9868 89.3236 12.2482Z" fill="white" stroke="white" style="fill:white;fill:white;fill-opacity:1;stroke:white;stroke:white;stroke-opacity:1;" stroke-width="0.1" stroke-miterlimit="10"/>
<path d="M111.737 13.318V10.7006C111.737 10.6543 111.674 10.6377 111.649 10.6741L109.706 13.2915C109.685 13.3213 109.706 13.3643 109.745 13.3643H111.688C111.716 13.3643 111.737 13.3444 111.737 13.318Z" fill="white" stroke="white" style="fill:white;fill:white;fill-opacity:1;stroke:white;stroke:white;stroke-opacity:1;" stroke-width="0.1" stroke-miterlimit="10"/>
<path d="M111.723 7.34839C111.762 7.29876 111.723 7.22596 111.656 7.22596H110.37C110.349 7.22596 110.335 7.22927 110.317 7.23258C110.299 7.23258 110.289 7.2392 110.274 7.24582C110.26 7.25244 110.25 7.25905 110.235 7.26567C110.221 7.2756 110.218 7.28222 110.21 7.28553C110.203 7.29214 110.196 7.29876 110.186 7.312C110.175 7.32523 110.168 7.33516 110.161 7.34509C110.154 7.35832 110.147 7.37156 110.139 7.38479C110.129 7.39803 110.122 7.40796 110.107 7.41457L106.375 12.3747L102.639 7.41457C102.639 7.41457 102.615 7.39472 102.593 7.36163C102.575 7.33516 102.561 7.312 102.551 7.30538C102.54 7.29876 102.529 7.28553 102.512 7.26898C102.497 7.25244 102.48 7.2392 102.455 7.23258C102.433 7.22596 102.405 7.22266 102.377 7.22266H100.928V13.278C100.928 13.321 100.967 13.3574 101.013 13.3574H102.103C102.164 13.3574 102.188 13.3309 102.188 13.278V8.84403L105.441 13.1655C105.537 13.2945 105.619 13.3574 105.686 13.3574H107.057C107.124 13.3574 107.206 13.2945 107.302 13.1655L111.723 7.34178V7.34839Z" fill="white" stroke="white" style="fill:white;fill:white;fill-opacity:1;stroke:white;stroke:white;stroke-opacity:1;" stroke-width="0.1" stroke-miterlimit="10"/>
<path d="M34.9668 20.1016H35.5882C35.5882 20.1016 35.6131 20.1016 35.6238 20.1049C35.6344 20.1049 35.6415 20.1115 35.6486 20.1214C35.6557 20.128 35.6593 20.1347 35.6628 20.138C35.6664 20.1413 35.6735 20.1512 35.6806 20.1611C35.6877 20.1744 35.6948 20.181 35.7019 20.1843L37.3035 22.3119L38.905 20.1843C38.905 20.1843 38.9157 20.1777 38.9192 20.171C38.9228 20.1644 38.9263 20.1578 38.9299 20.1545C38.9299 20.1479 38.937 20.1446 38.9405 20.138C38.9441 20.1347 38.9476 20.128 38.9512 20.128C38.9512 20.128 38.9583 20.1214 38.9618 20.1181C38.9689 20.1148 38.9725 20.1115 38.9796 20.1082C38.9832 20.1082 38.9903 20.1049 38.9974 20.1016C39.0045 20.1016 39.0116 20.1016 39.0187 20.1016H39.6401V22.6991C39.6401 22.7222 39.6295 22.7322 39.6046 22.7322H39.1358C39.111 22.7322 39.1003 22.7222 39.1003 22.6991V20.7964L37.7047 22.6494C37.6657 22.7057 37.6302 22.7322 37.6018 22.7322H37.0123C36.9839 22.7322 36.9483 22.7057 36.9093 22.6494L35.5137 20.7964V22.6991C35.5137 22.7222 35.503 22.7322 35.4782 22.7322H35.0094C34.9846 22.7322 34.9739 22.7222 34.9739 22.6991V20.1016H34.9668Z" fill="white" stroke="white" style="fill:white;fill:white;fill-opacity:1;stroke:white;stroke:white;stroke-opacity:1;" stroke-width="0.1" stroke-miterlimit="10"/>
<path d="M46.3236 20.5708C46.3236 20.594 46.313 20.6039 46.2881 20.6039H43.2341V21.1631H45.5175C45.5424 21.1631 45.553 21.1731 45.553 21.1962V21.633C45.553 21.6562 45.5424 21.6661 45.5175 21.6661H43.2341V22.2253H46.2881C46.313 22.2253 46.3236 22.2352 46.3236 22.2584V22.6952C46.3236 22.7183 46.313 22.7283 46.2881 22.7283H42.7298C42.705 22.7283 42.6943 22.7183 42.6943 22.6952V20.1307C42.6943 20.1076 42.705 20.0977 42.7298 20.0977H46.2881C46.313 20.0977 46.3236 20.1076 46.3236 20.1307V20.5675V20.5708Z" fill="white" stroke="white" style="fill:white;fill:white;fill-opacity:1;stroke:white;stroke:white;stroke-opacity:1;" stroke-width="0.1" stroke-miterlimit="10"/>
<path d="M49.271 20.101H51.5402C51.7923 20.101 52.0267 20.1605 52.2469 20.2763C52.467 20.3955 52.6375 20.5543 52.7618 20.7561C52.8896 20.958 52.95 21.1764 52.95 21.4146C52.95 21.6529 52.8861 21.8712 52.7618 22.0731C52.6339 22.2749 52.4635 22.4338 52.2469 22.5529C52.0302 22.672 51.7959 22.7283 51.5402 22.7283H49.2603C49.2426 22.7283 49.2319 22.7183 49.2319 22.7018V20.1307C49.2319 20.1076 49.2426 20.0977 49.2674 20.0977M49.7717 20.6006V22.2253H51.5366C51.7746 22.2253 51.9805 22.1459 52.151 21.9871C52.3214 21.8282 52.4067 21.6363 52.4067 21.4146C52.4067 21.1929 52.3214 21.001 52.151 20.8422C51.9805 20.6833 51.7746 20.6039 51.5366 20.6039H49.7717V20.6006Z" fill="white" style="fill:white;fill:white;fill-opacity:1;"/>
<path d="M49.271 20.101H51.5402C51.7923 20.101 52.0267 20.1605 52.2469 20.2763C52.467 20.3955 52.6375 20.5543 52.7618 20.7561C52.8896 20.958 52.95 21.1764 52.95 21.4146C52.95 21.6529 52.8861 21.8712 52.7618 22.0731C52.6339 22.2749 52.4635 22.4338 52.2469 22.5529C52.0302 22.672 51.7959 22.7283 51.5402 22.7283H49.2603C49.2426 22.7283 49.2319 22.7183 49.2319 22.7018V20.1307C49.2319 20.1076 49.2426 20.0977 49.2674 20.0977M49.7717 20.6006V22.2253H51.5366C51.7746 22.2253 51.9805 22.1459 52.151 21.9871C52.3214 21.8282 52.4067 21.6363 52.4067 21.4146C52.4067 21.1929 52.3214 21.001 52.151 20.8422C51.9805 20.6833 51.7746 20.6039 51.5366 20.6039H49.7717V20.6006Z" stroke="white" style="stroke:white;stroke:white;stroke-opacity:1;" stroke-width="0.1" stroke-miterlimit="10"/>
<path d="M56.3768 20.1016H55.9081C55.8885 20.1016 55.8726 20.1164 55.8726 20.1347V22.6991C55.8726 22.7173 55.8885 22.7322 55.9081 22.7322H56.3768C56.3964 22.7322 56.4123 22.7173 56.4123 22.6991V20.1347C56.4123 20.1164 56.3964 20.1016 56.3768 20.1016Z" fill="white" stroke="white" style="fill:white;fill:white;fill-opacity:1;stroke:white;stroke:white;stroke-opacity:1;" stroke-width="0.1" stroke-miterlimit="10"/>
<path d="M61.9024 20.1843L63.8236 22.7322H63.2199C63.2199 22.7322 63.195 22.7322 63.1879 22.7289C63.1808 22.7289 63.1702 22.7222 63.1631 22.7156C63.156 22.709 63.1489 22.7024 63.1453 22.6991C63.1417 22.6958 63.1347 22.6891 63.1275 22.6759C63.1204 22.6627 63.1133 22.6561 63.1062 22.6527L62.7689 22.1994H60.2476L59.9031 22.6527C59.9031 22.6527 59.896 22.6627 59.8889 22.6759C59.8818 22.6891 59.8747 22.6958 59.8711 22.6991L59.8534 22.7156C59.8534 22.7156 59.8356 22.7289 59.8285 22.7289C59.8214 22.7289 59.8108 22.7322 59.8001 22.7322H59.1929L61.114 20.1843C61.1567 20.128 61.1922 20.1016 61.2241 20.1016H61.8101C61.8385 20.1016 61.874 20.128 61.9131 20.1843M60.6346 21.6899H62.396L61.5118 20.5218L61.4336 20.6211L60.6311 21.6932L60.6346 21.6899Z" fill="white" style="fill:white;fill:white;fill-opacity:1;"/>
<path d="M61.9024 20.1843L63.8236 22.7322H63.2199C63.2199 22.7322 63.195 22.7322 63.1879 22.7289C63.1808 22.7289 63.1702 22.7222 63.1631 22.7156C63.156 22.709 63.1489 22.7024 63.1453 22.6991C63.1417 22.6958 63.1347 22.6891 63.1275 22.6759C63.1204 22.6627 63.1133 22.6561 63.1062 22.6527L62.7689 22.1994H60.2476L59.9031 22.6527C59.9031 22.6527 59.896 22.6627 59.8889 22.6759C59.8818 22.6891 59.8747 22.6958 59.8711 22.6991L59.8534 22.7156C59.8534 22.7156 59.8356 22.7289 59.8285 22.7289C59.8214 22.7289 59.8108 22.7322 59.8001 22.7322H59.1929L61.114 20.1843C61.1567 20.128 61.1922 20.1016 61.2241 20.1016H61.8101C61.8385 20.1016 61.874 20.128 61.9131 20.1843M60.6346 21.6899H62.396L61.5118 20.5218L61.4336 20.6211L60.6311 21.6932L60.6346 21.6899Z" stroke="white" style="stroke:white;stroke:white;stroke-opacity:1;" stroke-width="0.1" stroke-miterlimit="10"/>
<path d="M28.1629 8.88867C28.2322 9.22388 28.2294 9.21868 27.8995 9.24726C26.9126 9.32522 25.9228 9.40577 24.9359 9.49932C23.9573 9.59286 22.9759 9.689 22.0028 9.81633C20.7913 9.97484 19.577 10.1489 18.371 10.349C16.4249 10.6686 14.4981 11.0688 12.599 11.5833C10.5947 12.129 8.62907 12.7682 6.80488 13.7426C5.89002 14.2312 5.03614 14.7924 4.38742 15.5876C3.98266 16.0839 3.7276 16.6347 3.74147 17.274C3.75533 17.9132 4.03533 18.4537 4.45118 18.9396C5.09159 19.6906 5.9122 20.2284 6.79102 20.7014C8.38511 21.5589 10.1012 22.1513 11.8505 22.658C12.4188 22.8217 12.9927 22.9698 13.5694 23.105C12.9761 22.8997 12.38 22.7074 11.7923 22.4891C10.542 22.0266 9.3277 21.4939 8.26036 20.7144C7.87777 20.4337 7.51183 20.1167 7.19855 19.7711C6.17279 18.6278 6.20329 17.3156 7.24846 16.18C7.99421 15.3693 8.9368 14.808 9.93484 14.3195C11.6066 13.501 13.3836 12.9449 15.1939 12.4746C17.2787 11.9341 19.394 11.5157 21.5342 11.2221C22.9786 11.0246 24.4286 10.8583 25.8757 10.692C26.6326 10.6063 27.3949 10.5517 28.174 10.4789V10.8193C27.9245 10.8427 27.6666 10.8661 27.4116 10.8895C26.2195 11.0064 25.0246 11.1 23.8353 11.2455C20.0178 11.7106 16.2419 12.355 12.6046 13.5789C11.2267 14.0441 9.89048 14.5949 8.68729 15.3927C8.19659 15.7175 7.74748 16.0839 7.38707 16.5386C6.59696 17.5286 6.61637 18.581 7.44252 19.5476C7.97481 20.1713 8.64848 20.6364 9.37206 21.0418C10.8081 21.8447 12.3606 22.3956 13.9492 22.8633C16.0589 23.4843 18.213 23.9443 20.3948 24.2821C21.8337 24.503 23.2808 24.7004 24.728 24.8745C25.8369 25.0071 26.9541 25.085 28.0686 25.189C28.1019 25.1915 28.1352 25.1967 28.1823 25.2019V25.5553C27.8746 25.5371 27.5751 25.5268 27.2757 25.5008C26.2943 25.4176 25.3129 25.3449 24.3343 25.2383C23.1311 25.1084 21.9251 24.9733 20.7303 24.794C19.211 24.5653 17.6918 24.3237 16.1864 24.03C13.489 23.5025 10.8386 22.8217 8.31026 21.7719C7.19024 21.3068 6.11735 20.7689 5.1609 20.0414C4.5094 19.545 3.93553 18.9838 3.61117 18.2406C3.187 17.274 3.37829 16.3827 4.00206 15.5512C4.72287 14.5897 5.72922 13.9479 6.79934 13.3866C8.51541 12.485 10.3562 11.8691 12.2359 11.3494C14.5563 10.7076 16.9156 10.2191 19.3025 9.8657C20.7829 9.64743 22.2689 9.44994 23.7577 9.27585C24.7751 9.15632 25.7981 9.08616 26.8183 8.99521C27.2646 8.95623 27.711 8.92505 28.1684 8.88867" fill="white" style="fill:white;fill:white;fill-opacity:1;"/>
<path d="M28.1937 11.6709V11.988C27.8353 12.0244 27.4824 12.0556 27.1295 12.0946C25.9041 12.2349 24.6704 12.3363 23.4534 12.5312C21.814 12.7912 20.1802 13.0849 18.5603 13.4305C16.6097 13.849 14.7036 14.4156 12.9114 15.2759C12.0389 15.6944 11.2137 16.1778 10.5746 16.89C10.1634 17.3475 9.90494 17.8595 9.95496 18.4755C9.99941 19.0291 10.2884 19.4762 10.6718 19.8764C11.222 20.4508 11.9 20.8719 12.6169 21.2384C14.134 22.0129 15.7595 22.5224 17.46 22.972C16.8376 22.7199 16.2485 22.5016 15.6789 22.252C14.812 21.87 13.9867 21.4203 13.3115 20.7705C13.1309 20.5964 12.9586 20.4041 12.8197 20.1987C12.3057 19.4398 12.3084 18.6704 12.8225 17.9115C13.1976 17.3579 13.7255 16.9498 14.3007 16.5911C15.4872 15.8556 16.7959 15.3669 18.1407 14.9588C19.9107 14.4182 21.7196 14.0232 23.5562 13.745C24.8399 13.5501 26.132 13.3916 27.4213 13.2226C27.6713 13.1888 27.927 13.1784 28.1937 13.155V13.4877C27.8464 13.5267 27.4963 13.5683 27.1462 13.6047C25.19 13.81 23.2506 14.1011 21.3306 14.504C19.6245 14.8627 17.9462 15.2993 16.3402 15.9465C15.4538 16.3026 14.6008 16.7159 13.8644 17.3059C13.4143 17.6672 13.0253 18.0726 12.8697 18.6262C12.7002 19.2266 12.8808 19.7569 13.2754 20.2325C13.8117 20.8797 14.5258 21.3138 15.2815 21.6932C16.6458 22.3742 18.1018 22.8291 19.5884 23.2085C21.4473 23.6842 23.3367 24.0299 25.2456 24.2768C26.2209 24.4041 27.2017 24.5159 28.1937 24.6381V24.9993C27.8908 24.976 27.5963 24.9604 27.3073 24.9266C26.2931 24.8148 25.2762 24.7342 24.2703 24.5783C22.5976 24.321 20.9249 24.0429 19.2661 23.718C17.4711 23.3671 15.7178 22.8732 14.0228 22.2105C12.8864 21.7634 11.7888 21.2462 10.8497 20.4794C10.3328 20.0558 9.89938 19.5723 9.69099 18.9433C9.47148 18.278 9.61597 17.6646 9.99663 17.0875C10.3467 16.5599 10.8302 16.1519 11.3609 15.7932C12.5279 15.0056 13.8311 14.478 15.176 14.0284C17.2405 13.337 19.3633 12.8509 21.5195 12.5001C23.0061 12.2583 24.5009 12.066 25.9958 11.8659C26.6544 11.7775 27.3184 11.7333 27.9798 11.6683C28.0464 11.6631 28.1131 11.6683 28.1993 11.6683" fill="white" style="fill:white;fill:white;fill-opacity:1;"/>
<path d="M28.1641 15C28.2188 15.3168 28.2161 15.3168 27.9588 15.346C25.9715 15.575 23.9979 15.8674 22.0599 16.3328C20.6338 16.6764 19.2268 17.076 17.9485 17.7534C17.5434 17.9678 17.1519 18.2261 16.8098 18.5161C15.9202 19.2812 15.9311 20.1462 16.8016 20.9308C17.3025 21.3816 17.9047 21.7008 18.537 21.9786C19.8044 22.5366 21.1456 22.902 22.4732 23.2066C21.9504 22.9971 21.3893 22.7875 20.8445 22.5487C20.267 22.2953 19.7359 21.9737 19.2952 21.5424C18.6082 20.865 18.589 20.0926 19.2487 19.3908C19.6073 19.0083 20.0535 18.7281 20.5352 18.482C21.7095 17.885 22.9796 17.4927 24.2881 17.2173C25.5472 16.9518 26.8255 16.7593 28.0956 16.5351C28.1148 16.5327 28.1367 16.5351 28.1723 16.54V16.8616C27.7699 16.9225 27.3675 16.9761 26.9651 17.0419C25.0244 17.3611 23.1055 17.7485 21.3044 18.4942C20.6475 18.7671 20.0206 19.0863 19.5334 19.5809C19.2925 19.8246 19.1255 20.1023 19.1255 20.441C19.1255 20.8114 19.3226 21.1062 19.5936 21.3694C20.1 21.8543 20.7405 22.1662 21.403 22.4366C22.5307 22.8996 23.716 23.2066 24.9204 23.4673C24.9313 23.4698 24.945 23.4674 24.9696 23.4649C24.6302 23.3285 24.2935 23.2018 23.9678 23.0629C23.3765 22.8143 22.8236 22.5146 22.4103 22.0492C21.9532 21.5327 21.9559 20.9649 22.4103 20.4435C22.7169 20.0926 23.1165 19.8416 23.5463 19.6248C24.6111 19.0887 25.7662 18.7768 26.9432 18.5161C27.3456 18.4259 27.7535 18.3553 28.1586 18.2749C28.2407 18.5892 28.2243 18.6038 27.8575 18.672C26.6777 18.8913 25.5089 19.1496 24.4085 19.6004C23.9322 19.7953 23.4942 20.0682 23.0399 20.307C23.0125 20.3216 22.9878 20.3436 22.9632 20.3631C22.2433 20.9357 22.2324 21.5936 22.9824 22.1321C23.3738 22.4123 23.8227 22.6462 24.2771 22.8436C25.2379 23.2578 26.2699 23.5015 27.3456 23.7256C27.0007 23.5746 26.6722 23.4625 26.3848 23.2968C26.07 23.1165 25.758 22.9142 25.5062 22.673C25.0846 22.2685 25.0956 21.7666 25.4952 21.3475C25.6403 21.1964 25.81 21.0575 25.9907 20.943C26.6421 20.5214 27.3867 20.2827 28.1449 20.0682C28.2434 20.3265 28.2188 20.3728 27.9642 20.4532C27.3182 20.653 26.6832 20.8699 26.1303 21.2378C26.0673 21.2817 26.0043 21.3255 25.9469 21.3743C25.4213 21.8104 25.4158 22.2271 25.9578 22.6511C26.1905 22.8314 26.456 22.9898 26.7297 23.1092C27.1376 23.287 27.5673 23.4332 27.9943 23.5721C28.1504 23.6233 28.1996 23.6842 28.1887 23.8231C28.175 24.0205 28.186 24.2203 28.186 24.4444C27.8301 24.4055 27.4934 24.386 27.1649 24.3324C25.6759 24.0911 24.1813 23.8743 22.7059 23.5843C21.173 23.2846 19.6812 22.8509 18.277 22.21C17.5653 21.886 16.8974 21.5083 16.3663 20.9625C15.6026 20.1803 15.5999 19.2909 16.3581 18.5015C16.8317 18.0093 17.4229 17.6559 18.0552 17.3489C19.3664 16.7154 20.7734 16.3085 22.2105 15.9747C23.8747 15.5872 25.5636 15.3095 27.269 15.1145C27.5646 15.0804 27.8575 15.0439 28.1613 15.0049" fill="white" style="fill:white;fill:white;fill-opacity:1;"/>
<path d="M0.0260934 18.334C1.40126 20.0191 3.35984 20.8971 5.37954 21.6789C7.65205 22.5594 10.0162 23.1869 12.4249 23.6625C14.3779 24.0471 16.342 24.3761 18.3117 24.6847C19.5591 24.8796 20.8231 25.0086 22.0816 25.1402C23.3957 25.2768 24.7125 25.3881 26.0293 25.4995C26.6572 25.5526 27.2878 25.583 27.9185 25.6184C28.1991 25.6336 28.1991 25.626 28.1991 25.8891V26.1118C27.8185 26.0941 27.4573 26.0814 27.0989 26.0612C26.3738 26.0181 25.6515 25.9802 24.9264 25.9296C23.9902 25.8638 23.0512 25.793 22.115 25.7171C21.4121 25.6589 20.712 25.5956 20.0091 25.5273C19.1479 25.4438 18.2867 25.3603 17.4283 25.2591C16.4254 25.1402 15.4197 25.0187 14.4196 24.8644C12.661 24.5937 10.9025 24.3255 9.15223 24.0067C6.65192 23.5512 4.18217 22.9769 1.75964 22.2532C1.2568 22.104 0.75674 21.942 0.256678 21.7826C-0.026691 21.6915 -0.026691 21.689 0.0288715 21.3829C5.77403 23.2704 11.7359 24.2546 17.7644 24.9504C16.9171 24.8112 16.0642 24.6822 15.2197 24.5329C11.8026 23.9333 8.4327 23.1793 5.21007 21.9547C3.76267 21.4056 2.36527 20.7604 1.1429 19.8521C0.831749 19.6218 0.562271 19.3435 0.256678 19.1032C-0.00724413 18.8957 -0.0294691 18.6401 0.0260934 18.334Z" fill="white" style="fill:white;fill:white;fill-opacity:1;"/>
<path d="M0.020222 15.556C-0.0214833 15.2409 -0.0159226 14.9978 0.206505 14.7573C1.09622 13.7984 2.16665 13.0937 3.31215 12.4857C5.22503 11.4742 7.25747 10.7668 9.33161 10.1643C11.6087 9.50381 13.9192 8.98427 16.2575 8.59461C17.7144 8.35141 19.174 8.1248 20.6365 7.92306C21.7792 7.7683 22.9303 7.64947 24.0814 7.54446C25.4131 7.42286 26.7477 7.3289 28.0795 7.22388C28.1129 7.22112 28.1462 7.22388 28.1991 7.22388V7.5638C27.8348 7.59144 27.4623 7.61631 27.0897 7.64671C26.1638 7.72132 25.2408 7.79318 24.3177 7.87885C23.3751 7.96728 22.4326 8.06124 21.4929 8.17455C20.3918 8.30996 19.2936 8.44261 18.2009 8.62777C16.6133 8.89307 15.0258 9.16942 13.4493 9.50105C10.4827 10.1201 7.56609 10.9215 4.78296 12.1485C3.55126 12.693 2.35571 13.3092 1.32421 14.1853C0.893251 14.5528 0.531806 14.9978 0.139777 15.4095C0.103632 15.4454 0.0758289 15.4869 0.020222 15.5532" fill="white" style="fill:white;fill:white;fill-opacity:1;"/>
<path d="M28.1772 5.55469C28.2244 5.87297 28.2217 5.86333 27.891 5.88503C26.8047 5.94772 25.7184 6.01042 24.6349 6.08999C23.5847 6.16474 22.5345 6.24431 21.487 6.34799C20.2535 6.46856 19.0227 6.59877 17.7947 6.75791C16.3027 6.95081 14.8108 7.15336 13.3299 7.39931C9.60978 8.01418 5.93963 8.79784 2.44175 10.0927C1.68883 10.37 0.966465 10.7124 0.232992 11.0234C0.169091 11.05 0.10519 11.0789 0.0357326 11.1102C-0.0309468 10.8185 -0.0253902 10.804 0.238549 10.6786C2.05278 9.82504 3.96982 9.1957 5.93408 8.66281C8.69571 7.91049 11.5101 7.34626 14.3607 6.92187C15.8749 6.69522 17.3918 6.49026 18.9115 6.30459C19.9951 6.17197 21.0842 6.07552 22.1705 5.97666C23.279 5.87539 24.3904 5.78858 25.4989 5.70901C26.3352 5.64873 27.1742 5.60774 28.0133 5.55951C28.0661 5.5571 28.1189 5.55951 28.1828 5.55951" fill="white" style="fill:white;fill:white;fill-opacity:1;"/>
<path d="M0.0322429 5.55304C-0.0289108 5.2305 -0.0261311 5.2223 0.24906 5.14577C2.73968 4.43783 5.2581 3.84742 7.80431 3.38275C9.41377 3.08755 11.0288 2.81421 12.6438 2.56274C13.8835 2.37141 15.1316 2.22381 16.3769 2.07074C17.411 1.945 18.445 1.8302 19.4791 1.72633C20.2936 1.64433 21.1108 1.57873 21.928 1.51313C22.9065 1.43386 23.8849 1.35733 24.8634 1.29173C25.6751 1.23706 26.4867 1.20153 27.3012 1.1578C27.5959 1.1414 27.8877 1.12773 28.1991 1.11133V1.46667C27.7821 1.48853 27.3679 1.5104 26.9537 1.535C25.7473 1.61153 24.5382 1.67987 23.3318 1.76733C22.3005 1.84114 21.2692 1.92314 20.238 2.0188C19.2762 2.10627 18.3144 2.21014 17.3526 2.31947C16.3603 2.43427 15.3651 2.54908 14.3756 2.68574C13.1386 2.85795 11.9016 3.02468 10.673 3.23788C8.96901 3.53309 7.26227 3.83102 5.57221 4.20003C3.79319 4.5909 2.03085 5.06377 0.262959 5.50111C0.187907 5.52024 0.110075 5.53664 0.0322429 5.55577" fill="white" style="fill:white;fill:white;fill-opacity:1;"/>
<path d="M28.1963 3.33584C28.1963 3.41701 28.1963 3.47907 28.1963 3.54353C28.1963 3.56501 28.1852 3.5865 28.1768 3.62231C27.8129 3.64379 27.4517 3.66289 27.0933 3.68437C26.007 3.74644 24.9207 3.79418 23.8372 3.87058C22.612 3.95651 21.3895 4.05916 20.1671 4.16898C19.0808 4.26685 17.9917 4.3695 16.9082 4.49364C15.7052 4.62971 14.5022 4.77055 13.3047 4.95198C11.6267 5.20502 9.95415 5.47239 8.28719 5.77318C5.54781 6.26733 2.85289 6.90233 0.219088 7.72352C0.157966 7.74262 0.0940657 7.75933 0.0301655 7.77843C-0.0281782 7.48958 -0.0281782 7.4848 0.274653 7.3917C2.91679 6.57528 5.62005 5.93551 8.36498 5.44852C10.2959 5.10476 12.2351 4.80397 14.1771 4.51989C15.4857 4.32892 16.8081 4.19523 18.125 4.05439C19.303 3.92787 20.4866 3.81806 21.6673 3.71779C22.7175 3.62947 23.7677 3.56501 24.8207 3.49817C25.7514 3.43849 26.6821 3.38836 27.6156 3.33823C27.8018 3.32868 27.9879 3.33823 28.1991 3.33823" fill="white" style="fill:white;fill:white;fill-opacity:1;"/>
<path d="M0.0221788 23.3364C9.28844 25.315 18.7076 26.1996 28.1991 26.5865V26.6481C28.1323 26.653 28.0656 26.6604 27.9989 26.6604C26.4587 26.6604 24.9157 26.6801 23.3755 26.653C22.5109 26.6382 21.6462 26.552 20.7816 26.4928C20.106 26.446 19.4277 26.3943 18.7521 26.3351C17.8819 26.2612 17.0145 26.1824 16.1471 26.0961C15.3214 26.0148 14.4929 25.9286 13.6672 25.835C12.6357 25.7167 11.6015 25.6033 10.5729 25.4629C9.20503 25.2756 7.8372 25.0957 6.48048 24.8592C4.36756 24.4896 2.26576 24.0756 0.158406 23.6789C-0.0167434 23.6469 -0.0195236 23.6247 0.0221788 23.334" fill="white" style="fill:white;fill:white;fill-opacity:1;"/>
<path d="M0.0224707 2.77778C-0.0245102 2.42685 -0.0245102 2.42685 0.293302 2.35225C2.94081 1.71119 5.60491 1.16684 8.29111 0.741307C9.87188 0.489857 11.4526 0.221827 13.0417 0.0477464C13.9261 -0.0489652 14.8325 0.0311673 15.7279 0.0311673C15.739 0.0311673 15.75 0.04222 15.7915 0.0615624C10.4688 0.666701 5.21524 1.50671 0.0224707 2.77778Z" fill="white" style="fill:white;fill:white;fill-opacity:1;"/>
<path d="M13.5355 26.6443C12.3608 26.6443 11.1804 26.7076 10.0084 26.6253C8.92188 26.5494 7.84099 26.3247 6.76011 26.1539C5.99211 26.0336 5.22696 25.8944 4.46181 25.7584C3.26714 25.5432 2.07817 25.3186 0.886355 25.0971C0.695778 25.0623 0.508046 25.0212 0.320314 24.98C-0.0238628 24.9041 -0.0437738 24.8598 0.0444036 24.4453C4.51301 25.3724 9.0129 26.0779 13.5355 26.6443Z" fill="white" style="fill:white;fill:white;fill-opacity:1;"/>
<path d="M0.0241225 0.555556C-0.0264198 0.233154 -0.0210995 0.250251 0.276834 0.167209C1.07487 -0.0526105 1.89152 0.00845032 2.70552 0.00600789C2.72946 0.00600789 2.75074 0.0157776 2.81991 0.0328747C1.86226 0.211172 0.949843 0.382143 0.0241225 0.555556Z" fill="white" style="fill:white;fill:white;fill-opacity:1;"/>
<path d="M2.25255 26.6669H0V26.1113C0.762091 26.2823 1.51069 26.4489 2.25592 26.6199C2.25592 26.637 2.25592 26.6498 2.25592 26.6669" fill="white" style="fill:white;fill:white;fill-opacity:1;"/>
</g>
</svg>
