<svg width="202" height="50" viewBox="0 0 202 50" fill="none" xmlns="http://www.w3.org/2000/svg">
<g id="Group 2">
<path id="Vector" d="M201.086 25.8814V21.4553C201.086 21.3733 200.984 21.346 200.943 21.4075L197.883 25.8404C197.849 25.8883 197.883 25.9634 197.951 25.9634H201.011C201.052 25.9634 201.086 25.9224 201.086 25.8814ZM67.8235 22.6506C67.3591 21.8446 66.758 21.2162 66.0271 20.7722C66.758 20.3214 67.3591 19.693 67.8235 18.887C68.2948 19.693 68.8959 20.3214 69.62 20.7722C68.8959 21.2162 68.2948 21.8446 67.8235 22.6506ZM70.8768 25.9634H62.5299C62.4411 25.9634 62.3933 25.9156 62.3933 25.8268V24.1055C62.3933 24.0167 62.4411 23.9757 62.5299 23.9757H70.8768C71.7579 23.9757 72.5093 23.6615 73.1377 23.0331C73.7661 22.4047 74.0803 21.6465 74.0803 20.7722C74.0803 19.8911 73.7661 19.1329 73.1377 18.5045C72.5093 17.8761 71.7579 17.5619 70.8768 17.5619H62.5299C62.4411 17.5619 62.3933 17.5209 62.3933 17.4321V15.7108C62.3933 15.622 62.4411 15.5742 62.5299 15.5742H70.8768C71.8057 15.5742 72.6664 15.8065 73.4724 16.2709C74.2715 16.7354 74.9068 17.3706 75.3644 18.163C75.8357 18.9621 76.0679 19.8296 76.0679 20.7722C76.0679 21.708 75.8357 22.5755 75.3644 23.3746C74.9068 24.167 74.2715 24.8022 73.4724 25.2667C72.6664 25.7312 71.8057 25.9634 70.8768 25.9634ZM105.521 25.9634H103.281C103.24 25.9634 103.205 25.9566 103.171 25.9497C103.137 25.9361 103.103 25.9156 103.076 25.8883C103.042 25.8541 103.021 25.8336 103.007 25.82C102.994 25.8063 102.973 25.7721 102.939 25.7243C102.912 25.6765 102.891 25.6424 102.884 25.6355C102.55 25.1506 102.065 24.4607 101.443 23.5659C100.822 22.6711 100.439 22.1178 100.289 21.9129L100.186 21.7626H92.2699V19.775H102.864C103.171 19.775 103.431 19.6657 103.649 19.4471C103.861 19.2285 103.964 18.969 103.964 18.6684C103.964 18.3679 103.861 18.1083 103.649 17.8898C103.431 17.6712 103.171 17.5619 102.864 17.5619H92.2699V15.7108C92.2699 15.622 92.3109 15.5742 92.3997 15.5742H102.85C103.417 15.5742 103.936 15.7177 104.408 15.9909C104.886 16.2709 105.261 16.6466 105.535 17.1179C105.815 17.596 105.951 18.1083 105.951 18.6616C105.951 19.4539 105.685 20.1438 105.152 20.7312C104.619 21.3187 103.964 21.6602 103.192 21.749L102.618 21.8105L105.521 25.9634ZM135.288 25.9634H122.215C122.126 25.9634 122.078 25.9156 122.078 25.8268V24.1055C122.078 24.0167 122.133 23.9757 122.228 23.9757H135.288C135.377 23.9757 135.418 24.0167 135.418 24.1055V25.8268C135.418 25.9156 135.377 25.9634 135.288 25.9634ZM124.066 21.7626H122.228C122.133 21.7626 122.078 21.7217 122.078 21.626V19.9048C122.078 19.816 122.133 19.775 122.228 19.775H132.46C132.549 19.775 132.59 19.816 132.59 19.9048V21.626C132.59 21.7217 132.549 21.7626 132.46 21.7626H124.066ZM135.418 15.7108V17.4321C135.418 17.5209 135.377 17.5619 135.288 17.5619H122.215C122.126 17.5619 122.078 17.5209 122.078 17.4321V15.7108C122.078 15.622 122.126 15.5742 122.215 15.5742H135.288C135.377 15.5742 135.418 15.622 135.418 15.7108ZM161.169 24.0782C160.452 24.5222 159.851 25.1506 159.379 25.9634C158.915 25.1506 158.314 24.5222 157.583 24.0782C158.314 23.6342 158.915 23.0058 159.379 22.193C159.851 23.0058 160.452 23.6342 161.169 24.0782ZM160.841 15.9021L167.904 25.9634H165.677C165.629 25.9634 165.588 25.9566 165.561 25.9429C165.527 25.9361 165.5 25.9156 165.472 25.8883C165.438 25.8541 165.418 25.8336 165.404 25.82C165.39 25.8063 165.363 25.7721 165.336 25.7243C165.308 25.6765 165.281 25.6424 165.26 25.6355C162.651 21.8993 160.691 19.0988 159.379 17.2409L159.093 17.6234C158.471 18.5113 157.542 19.8501 156.292 21.6329C155.049 23.4088 154.113 24.7476 153.492 25.6355C153.485 25.6424 153.464 25.6765 153.43 25.7243C153.403 25.7721 153.382 25.8063 153.369 25.82C153.348 25.8336 153.328 25.8541 153.3 25.8883C153.266 25.9156 153.239 25.9361 153.205 25.9429C153.171 25.9566 153.13 25.9634 153.089 25.9634H150.855L157.911 15.9021C158.068 15.6835 158.198 15.5742 158.314 15.5742H160.459C160.568 15.5742 160.698 15.6835 160.841 15.9021ZM201.059 15.7791C201.121 15.6903 201.059 15.5742 200.957 15.5742H198.928C198.901 15.5742 198.873 15.581 198.846 15.5879C198.826 15.5879 198.798 15.5947 198.778 15.6084C198.764 15.6152 198.737 15.6289 198.716 15.6425C198.696 15.6562 198.689 15.6698 198.675 15.6767C198.668 15.6903 198.655 15.704 198.641 15.7245C198.627 15.745 198.614 15.7655 198.6 15.7791C198.586 15.7996 198.58 15.8269 198.566 15.8474C198.552 15.8748 198.532 15.8884 198.511 15.9021L192.63 24.2968L186.742 15.9021C186.722 15.8884 186.701 15.8679 186.667 15.8133C186.64 15.7655 186.619 15.7313 186.606 15.7177C186.585 15.704 186.565 15.6767 186.537 15.6562C186.524 15.622 186.49 15.6015 186.456 15.5879C186.415 15.581 186.374 15.5742 186.326 15.5742H184.044V25.8268C184.044 25.9019 184.106 25.9566 184.181 25.9566H185.895C185.984 25.9566 186.032 25.9156 186.032 25.8268V18.3269L191.155 25.6355C191.305 25.8541 191.435 25.9566 191.544 25.9566H193.71C193.819 25.9566 193.949 25.8541 194.099 25.6355L201.059 15.7791ZM109.005 35.7993H109.981C110.002 35.7993 110.022 35.7993 110.036 35.8061C110.05 35.8061 110.063 35.8198 110.077 35.8335C110.084 35.8403 110.091 35.854 110.097 35.8608C110.104 35.8676 110.111 35.8813 110.125 35.9018C110.138 35.9223 110.152 35.9359 110.159 35.9359L112.679 39.5356L115.207 35.9359C115.213 35.9359 115.22 35.9223 115.227 35.9154C115.234 35.9086 115.241 35.8949 115.248 35.8881C115.248 35.8813 115.254 35.8744 115.261 35.8608C115.268 35.854 115.268 35.8471 115.275 35.8403C115.282 35.8403 115.289 35.8335 115.295 35.8266C115.302 35.8198 115.309 35.813 115.323 35.813C115.33 35.8061 115.336 35.8061 115.35 35.7993H116.361V40.1913C116.361 40.2323 116.347 40.2528 116.306 40.2528H115.569C115.528 40.2528 115.514 40.2323 115.514 40.1913V36.9742L113.315 40.1093C113.246 40.205 113.192 40.2528 113.144 40.2528H112.222C112.174 40.2528 112.119 40.205 112.051 40.1093L109.852 36.9742V40.1913C109.852 40.2323 109.838 40.2528 109.797 40.2528H109.059C109.018 40.2528 109.005 40.2323 109.005 40.1913V35.7993ZM126.9 36.5916C126.9 36.6326 126.88 36.6531 126.846 36.6531H122.03V37.5957H125.63C125.671 37.5957 125.685 37.6162 125.685 37.6572V38.3949C125.685 38.429 125.671 38.4495 125.63 38.4495H122.03V39.399H126.846C126.88 39.399 126.9 39.4195 126.9 39.4536V40.1913C126.9 40.2323 126.88 40.2528 126.846 40.2528H121.238C121.204 40.2528 121.183 40.2323 121.183 40.1913V35.854C121.183 35.8198 121.204 35.7993 121.238 35.7993H126.846C126.88 35.7993 126.9 35.8198 126.9 35.854V36.5916ZM132.344 36.6531V39.399H135.124C135.507 39.399 135.828 39.2624 136.094 38.996C136.368 38.7296 136.497 38.4017 136.497 38.026C136.497 37.6504 136.368 37.3225 136.094 37.0561C135.828 36.7829 135.507 36.6531 135.124 36.6531H132.344ZM131.545 35.7993H135.124C135.527 35.7993 135.896 35.8949 136.238 36.0998C136.586 36.2979 136.852 36.5643 137.051 36.9058C137.249 37.2474 137.351 37.623 137.351 38.026C137.351 38.429 137.249 38.7979 137.051 39.1394C136.852 39.4809 136.586 39.7542 136.238 39.9522C135.896 40.1503 135.527 40.2528 135.124 40.2528H131.532C131.504 40.2528 131.491 40.2323 131.491 40.205V35.854C131.491 35.8198 131.511 35.7993 131.545 35.7993ZM142.01 40.2528C141.969 40.2528 141.955 40.2323 141.955 40.1913V35.854C141.955 35.8198 141.969 35.7993 142.01 35.7993H142.747C142.781 35.7993 142.809 35.8198 142.809 35.854V40.1913C142.809 40.2323 142.781 40.2528 142.747 40.2528H142.01ZM149.441 38.4905H152.214L150.828 36.5097L150.705 36.6736L149.441 38.4905ZM151.456 35.9359L154.482 40.2528H153.526C153.505 40.2528 153.492 40.246 153.478 40.246C153.464 40.2391 153.451 40.2323 153.437 40.2186L153.41 40.1913C153.403 40.1845 153.396 40.1708 153.382 40.1503C153.369 40.1298 153.355 40.1162 153.348 40.1093L152.815 39.3375H148.84L148.3 40.1093C148.3 40.1162 148.294 40.1298 148.273 40.1503C148.266 40.1708 148.253 40.1845 148.246 40.1913C148.239 40.1981 148.232 40.205 148.218 40.2186C148.205 40.2323 148.191 40.2391 148.177 40.246C148.164 40.246 148.15 40.2528 148.13 40.2528H147.173L150.199 35.9359C150.268 35.8471 150.322 35.7993 150.37 35.7993H151.292C151.333 35.7993 151.395 35.8471 151.456 35.9359ZM49.873 16.6398C50.0028 17.275 49.9891 17.2682 49.4085 17.316C47.6531 17.4731 45.9045 17.6165 44.1559 17.801C42.4141 17.9786 40.6792 18.1561 38.9511 18.3952C36.7994 18.6958 34.6478 19.0304 32.5099 19.4061C29.0537 20.014 25.6384 20.7654 22.271 21.7422C18.7123 22.7804 15.2288 23.9894 11.9911 25.8336C10.3723 26.7626 8.85591 27.8281 7.70156 29.3308C6.98435 30.2734 6.53354 31.3117 6.56086 32.5275C6.58135 33.7365 7.07998 34.7542 7.81767 35.6764C8.95153 37.0971 10.4133 38.1217 11.9706 39.0165C14.7984 40.6421 17.838 41.7623 20.9459 42.7254C21.95 43.0328 22.9677 43.3128 23.9923 43.5724C22.9404 43.1831 21.8817 42.8142 20.8366 42.4044C18.6167 41.5301 16.4651 40.5192 14.573 39.0438C13.89 38.511 13.2411 37.9099 12.6878 37.2542C10.8641 35.0889 10.9255 32.6026 12.7766 30.451C14.1017 28.921 15.7684 27.8554 17.5375 26.9265C20.5087 25.376 23.6576 24.3241 26.8679 23.4361C30.57 22.4047 34.32 21.6192 38.1177 21.0659C40.6792 20.6903 43.2474 20.3761 45.8157 20.0619C47.1613 19.8979 48.5137 19.7886 49.9003 19.6589V20.3009C49.4564 20.3419 48.9987 20.3897 48.5479 20.4375C46.4304 20.6561 44.3062 20.8337 42.1955 21.1069C35.4265 21.9949 28.7326 23.2107 22.2778 25.5331C19.8325 26.4074 17.4623 27.4593 15.3312 28.962C14.4637 29.5767 13.6646 30.2734 13.0225 31.1341C11.6154 33.0056 11.6496 35.0001 13.1181 36.8307C14.0607 38.0192 15.2561 38.9004 16.5402 39.6654C19.088 41.1886 21.8407 42.2268 24.6617 43.1148C28.4048 44.2896 32.223 45.1639 36.0959 45.7991C38.6505 46.2158 41.2119 46.5915 43.7802 46.9193C45.7474 47.1721 47.7282 47.3223 49.7022 47.5136C49.7569 47.5204 49.8184 47.5273 49.9003 47.5409V48.2103C49.3539 48.1762 48.8211 48.1557 48.2952 48.1079C46.5534 47.9508 44.8116 47.8073 43.0767 47.6092C40.9387 47.3633 38.8008 47.1038 36.6833 46.7691C33.9853 46.3388 31.2941 45.8743 28.6234 45.321C23.8352 44.3238 19.129 43.0328 14.6482 41.0451C12.6605 40.164 10.7548 39.1462 9.06082 37.7665C7.90647 36.8239 6.88873 35.7652 6.30813 34.3512C5.55678 32.5275 5.89831 30.8335 7.00485 29.2625C8.28215 27.4456 10.0649 26.223 11.9706 25.1574C15.0102 23.4566 18.2752 22.2886 21.6084 21.2982C25.7272 20.0823 29.9143 19.1602 34.1492 18.4908C36.779 18.081 39.4087 17.7053 42.0521 17.3706C43.8553 17.1452 45.6654 17.0155 47.4823 16.8447C48.2747 16.7696 49.067 16.7081 49.873 16.6398Z" fill="white" style="fill:white;fill:white;fill-opacity:1;"/>
<path id="Vector_2" d="M49.9135 22.219V22.82C49.2783 22.8883 48.6499 22.943 48.0283 23.0181C45.863 23.2845 43.6773 23.4826 41.5257 23.8446C38.6227 24.3364 35.7334 24.8897 32.8646 25.5522C29.4084 26.3377 26.0341 27.417 22.8648 29.0426C21.3211 29.835 19.8594 30.7502 18.7255 32.0959C18.0015 32.9633 17.5438 33.9333 17.6326 35.1013C17.7078 36.1532 18.22 36.9933 18.8963 37.7583C19.873 38.8444 21.0752 39.6367 22.3388 40.3334C25.0232 41.802 27.9057 42.7651 30.9111 43.6121C29.8114 43.1408 28.7732 42.7241 27.7622 42.2528C26.2254 41.5288 24.7637 40.675 23.5683 39.4455C23.2473 39.1176 22.9468 38.7556 22.7009 38.3662C21.7856 36.925 21.7924 35.4701 22.7077 34.0357C23.3702 32.9838 24.2992 32.212 25.3238 31.5358C27.4207 30.1423 29.7363 29.2202 32.1133 28.4415C35.2485 27.417 38.4451 26.6724 41.6964 26.1465C43.971 25.7776 46.2592 25.4771 48.5338 25.1561C48.9846 25.0946 49.4286 25.0741 49.9067 25.0263V25.6615C49.292 25.7298 48.6704 25.8118 48.0488 25.8801C44.5926 26.2694 41.1568 26.8227 37.7621 27.5809C34.743 28.2639 31.7717 29.0904 28.9234 30.3131C27.3592 30.9893 25.8497 31.7748 24.5383 32.8882C23.7459 33.5712 23.056 34.3431 22.7828 35.395C22.4823 36.5288 22.7965 37.5329 23.5 38.4346C24.4495 39.6572 25.7131 40.4837 27.0519 41.2009C29.463 42.4919 32.045 43.3525 34.6747 44.0697C37.9602 44.9713 41.3071 45.6202 44.6882 46.0915C46.4163 46.3306 48.1444 46.5492 49.8999 46.7746V47.4576C49.3671 47.4167 48.848 47.3825 48.3357 47.321C46.5393 47.1161 44.736 46.959 42.9533 46.6653C39.9957 46.1735 37.0381 45.6476 34.0941 45.0328C30.9248 44.3703 27.8169 43.4345 24.8183 42.1777C22.8033 41.3375 20.8634 40.3539 19.2036 38.899C18.2815 38.0999 17.5233 37.1846 17.1545 35.9961C16.7583 34.7324 17.0179 33.5712 17.6941 32.4784C18.3157 31.4811 19.1695 30.7093 20.1121 30.0262C22.1749 28.5372 24.4836 27.5331 26.8606 26.6861C30.5149 25.3747 34.2785 24.4525 38.0899 23.79C40.7265 23.3323 43.3699 22.9635 46.0133 22.5878C47.1813 22.4239 48.3562 22.3351 49.5242 22.219C49.6403 22.2053 49.7564 22.219 49.9135 22.219Z" fill="white" style="fill:white;fill:white;fill-opacity:1;"/>
<path id="Vector_3" d="M49.8865 27.4855C49.9821 28.1275 49.9821 28.1207 49.5176 28.1822C45.9453 28.6466 42.4003 29.2341 38.9167 30.1767C36.3553 30.8665 33.828 31.6794 31.5329 33.0455C30.8021 33.4826 30.0985 33.9949 29.4906 34.5892C27.8855 36.1329 27.906 37.8746 29.477 39.4661C30.3718 40.3746 31.451 41.0167 32.5848 41.5836C34.8662 42.7106 37.2774 43.4483 39.6612 44.0631C38.7186 43.6396 37.7145 43.2161 36.7309 42.7311C35.6927 42.2188 34.7364 41.5699 33.9509 40.7025C32.7146 39.3364 32.6873 37.7722 33.869 36.3514C34.511 35.5864 35.317 35.0127 36.1777 34.5209C38.2883 33.3119 40.5697 32.5195 42.9194 31.9663C45.1803 31.4335 47.4821 31.0373 49.7635 30.5865C49.7977 30.5797 49.8318 30.5933 49.9001 30.5933V31.2422C49.1761 31.3652 48.4521 31.4745 47.728 31.6111C44.2445 32.2531 40.7951 33.0386 37.5574 34.5414C36.3758 35.0946 35.2487 35.7367 34.3744 36.7339C33.9441 37.2326 33.6436 37.7927 33.6436 38.4689C33.6436 39.2202 33.9919 39.8145 34.4837 40.3404C35.3922 41.324 36.5465 41.9524 37.735 42.4989C39.7637 43.4347 41.8948 44.0562 44.0532 44.5822C44.0737 44.589 44.1011 44.5822 44.142 44.5753C43.5341 44.3021 42.9262 44.0494 42.3388 43.7693C41.2801 43.2639 40.2828 42.6628 39.5451 41.7202C38.7255 40.6751 38.7255 39.5276 39.5451 38.4757C40.0915 37.7653 40.8088 37.2599 41.5806 36.8227C43.4931 35.7435 45.5696 35.1083 47.6871 34.5823C48.4111 34.4047 49.142 34.2545 49.866 34.0974C50.0163 34.7326 49.9889 34.7599 49.3264 34.8965C47.2021 35.3405 45.1051 35.8596 43.1311 36.7681C42.2705 37.1643 41.4918 37.7175 40.6721 38.2025C40.6243 38.2298 40.5833 38.2776 40.5355 38.3118C39.2446 39.473 39.2241 40.7981 40.5697 41.8841C41.2801 42.4511 42.0861 42.9292 42.8989 43.3185C44.627 44.1587 46.4781 44.6505 48.4179 45.1013C47.7895 44.7939 47.2089 44.5685 46.6898 44.2407C46.1229 43.8718 45.5628 43.4688 45.112 42.977C44.3538 42.1642 44.3743 41.1464 45.0915 40.2995C45.351 39.9921 45.6584 39.7189 45.9794 39.4798C47.1474 38.626 48.4862 38.141 49.8523 37.7107C50.0299 38.2298 49.9821 38.3323 49.5245 38.4894C48.3701 38.8924 47.2226 39.3295 46.2322 40.0741C46.116 40.1628 46.0068 40.2516 45.9043 40.3473C44.9617 41.2284 44.948 42.0754 45.9248 42.9292C46.3415 43.2912 46.8196 43.6122 47.3114 43.8513C48.0491 44.2133 48.8141 44.507 49.5859 44.7871C49.866 44.8895 49.9548 45.0125 49.9343 45.2925C49.9138 45.6955 49.9275 46.0985 49.9275 46.5494C49.2922 46.4674 48.6843 46.4264 48.0969 46.324C45.4262 45.8322 42.7418 45.395 40.0847 44.8076C37.332 44.1997 34.6545 43.3254 32.1272 42.0344C30.8567 41.3787 29.6477 40.6137 28.6983 39.514C27.3254 37.9361 27.3185 36.1397 28.6778 34.5482C29.5316 33.5509 30.5972 32.8337 31.731 32.219C34.0875 30.9417 36.6148 30.1152 39.1899 29.4458C42.1817 28.6603 45.2144 28.1002 48.2813 27.704C48.8073 27.6357 49.34 27.5606 49.8865 27.4855ZM0.0580337 34.3433C2.48969 37.6219 5.95958 39.3295 9.53193 40.8527C13.5551 42.5603 17.7422 43.783 22.0044 44.7051C25.4606 45.4565 28.9442 46.0985 32.4277 46.6996C34.634 47.0753 36.8676 47.328 39.1011 47.5876C41.4235 47.854 43.7595 48.0726 46.0887 48.2843C47.2021 48.3868 48.3155 48.4482 49.4357 48.5165C49.9275 48.5439 49.9275 48.5302 49.9275 49.0425V49.4796C49.2512 49.4455 48.616 49.425 47.9808 49.384C46.6966 49.302 45.4125 49.2201 44.1352 49.1245C42.4754 48.9947 40.8156 48.8581 39.1626 48.7078C37.9195 48.5985 36.6763 48.4756 35.4332 48.3389C33.91 48.175 32.3868 48.0179 30.8704 47.8198C29.0876 47.5876 27.3117 47.3485 25.5426 47.0548C22.4279 46.5289 19.3132 46.0029 16.219 45.3882C11.7928 44.5002 7.4213 43.38 3.13176 41.9729C2.24379 41.6792 1.35583 41.365 0.474694 41.0576C-0.0307636 40.88 -0.0307636 40.8732 0.0648642 40.279C10.2355 43.9469 20.7886 45.8595 31.4646 47.2187C29.9619 46.9455 28.4592 46.6928 26.9565 46.4059C20.9115 45.2379 14.9417 43.7693 9.23822 41.3855C6.66995 40.3199 4.20414 39.0631 2.03205 37.294C1.47878 36.8432 1.00747 36.3104 0.467863 35.8391C0.00338972 35.4361 -0.0375941 34.9375 0.0580337 34.3433ZM0.0580337 28.3119C-0.0171022 27.7518 -0.0034403 27.3147 0.385897 26.8912C1.95691 25.1836 3.85579 23.9268 5.88444 22.8475C9.26554 21.0443 12.8584 19.7807 16.5264 18.7151C20.5563 17.5403 24.641 16.6113 28.7803 15.9146C31.3485 15.4843 33.9373 15.0744 36.5192 14.7261C38.5479 14.446 40.5765 14.2411 42.612 14.0499C44.9685 13.8313 47.3319 13.6674 49.6884 13.4829C49.7499 13.4761 49.8045 13.4829 49.9001 13.4829V14.084C49.2512 14.1318 48.5955 14.1797 47.9398 14.2343C46.3005 14.3709 44.668 14.4939 43.0355 14.651C41.3689 14.8081 39.6954 14.972 38.0356 15.1769C36.0889 15.416 34.1422 15.655 32.2092 15.9829C29.4018 16.4542 26.5945 16.946 23.8077 17.5334C18.5618 18.64 13.398 20.0607 8.48003 22.2465C6.3011 23.2164 4.19048 24.3161 2.36674 25.8803C1.60173 26.5292 0.959658 27.3284 0.269779 28.0592C0.208303 28.1275 0.15366 28.1958 0.0580337 28.3119ZM49.8933 9.91743C49.9753 10.5663 49.9753 10.5527 49.381 10.5868C47.4617 10.7166 45.5423 10.8464 43.6229 11.0035C41.765 11.1606 39.9071 11.3177 38.0492 11.5294C35.8703 11.7753 33.6845 12.0417 31.5125 12.3696C28.8759 12.7657 26.2325 13.1756 23.6096 13.6742C17.0181 14.931 10.5223 16.5293 4.33392 19.1727C3.00198 19.7397 1.72467 20.4364 0.42005 21.0716C0.310762 21.1263 0.194645 21.1877 0.0785252 21.2492C-0.0444228 20.655 -0.0375945 20.6276 0.433711 20.3749C3.63721 18.6331 7.0388 17.349 10.5155 16.2561C15.3993 14.7261 20.3787 13.5717 25.4265 12.6974C28.104 12.2398 30.7952 11.8231 33.4865 11.4406C35.399 11.1674 37.3252 10.9693 39.2514 10.7712C41.2118 10.5663 43.1789 10.3887 45.1461 10.218C46.6283 10.1018 48.1105 10.0199 49.5928 9.91743C49.6884 9.91059 49.784 9.91743 49.8933 9.91743ZM0.0716947 9.89693C-0.0375932 9.30951 -0.0375932 9.30268 0.454202 9.15924C4.85987 7.88877 9.31335 6.82321 13.8215 5.98306C16.6698 5.45028 19.5249 4.95849 22.3869 4.50767C24.5795 4.15932 26.7858 3.89293 28.9852 3.61971C30.8157 3.3943 32.6463 3.18939 34.4769 2.99814C35.9181 2.84786 37.3662 2.73858 38.8142 2.61563C40.5424 2.47219 42.2705 2.33558 44.0054 2.21263C45.4398 2.117 46.8811 2.05553 48.3155 1.97356C48.8346 1.94624 49.3537 1.91892 49.9001 1.88477V2.52683C49.1624 2.56781 48.4316 2.60197 47.7007 2.64978C45.5628 2.78639 43.4248 2.91617 41.2869 3.06644C39.4631 3.20305 37.6394 3.34649 35.8157 3.52408C34.1149 3.68119 32.4141 3.86561 30.7133 4.06369C28.9578 4.26861 27.1956 4.48035 25.447 4.72625C23.2544 5.03362 21.0686 5.33416 18.8965 5.7235C15.8775 6.24945 12.8584 6.78906 9.87345 7.45162C6.72459 8.15516 3.60989 9.00897 0.474694 9.79448C0.344914 9.82863 0.208305 9.86278 0.0716947 9.89693ZM49.9275 5.85328V6.2836C49.9275 6.33142 49.907 6.3724 49.8933 6.4407C49.2512 6.48852 48.6092 6.5295 47.9739 6.57048C46.0477 6.70026 44.1284 6.79589 42.2022 6.95299C40.0369 7.13058 37.8716 7.34916 35.7132 7.57457C33.787 7.77265 31.8608 7.98439 29.9414 8.24395C27.8103 8.524 25.6792 8.81772 23.5618 9.18656C20.5973 9.70568 17.6329 10.259 14.6821 10.8805C9.83247 11.8983 5.06479 13.2097 0.399558 14.9037C0.29027 14.9447 0.180982 14.9788 0.0648642 15.013C-0.0375936 14.4187 -0.030764 14.4119 0.495185 14.2206C5.17407 12.5335 9.96225 11.2152 14.8256 10.2111C18.234 9.50076 21.6697 8.87919 25.1123 8.2986C27.4278 7.90243 29.7638 7.62921 32.0999 7.3355C34.1832 7.07594 36.2733 6.85053 38.3703 6.64562C40.2213 6.46119 42.0861 6.33142 43.9508 6.18798C45.5969 6.06503 47.2431 5.96257 48.8961 5.86011C49.2239 5.83962 49.5518 5.85328 49.9275 5.85328Z" fill="white" style="fill:white;fill:white;fill-opacity:1;"/>
<path id="Vector_4" d="M0.0579238 43.346C16.4511 47.294 33.1107 49.0631 49.9 49.835V49.9579C49.7839 49.9716 49.661 49.9852 49.5448 49.9852C46.8195 49.9852 44.0941 50.0262 41.3687 49.9716C39.8387 49.9443 38.3087 49.7735 36.7787 49.6506C35.5833 49.5549 34.388 49.4525 33.1926 49.3363C31.6489 49.1861 30.1121 49.029 28.5821 48.865C27.1135 48.7011 25.6518 48.5235 24.1901 48.3391C22.3663 48.1 20.5426 47.8746 18.7188 47.5946C16.3077 47.2189 13.8828 46.8637 11.4853 46.3924C7.74906 45.6547 4.02644 44.8282 0.303821 44.0359C-0.00355025 43.9676 -0.0172121 43.9266 0.0579238 43.346ZM0.0579238 4.95864C-0.0240421 4.33023 -0.0172128 4.33023 0.542888 4.19362C5.25593 3.05293 9.99629 2.083 14.7776 1.32482C17.5918 0.880833 20.406 0.395869 23.2338 0.0884968C24.8048 -0.0890969 26.4168 0.0543448 28.0083 0.0611748C28.0288 0.0611748 28.0493 0.0816667 28.1244 0.115819C18.6505 1.19504 9.29958 2.69091 0.0579238 4.95864ZM23.4045 49.9579C21.3691 49.9579 19.3336 50.0536 17.3117 49.9238C15.4265 49.8077 13.5618 49.4593 11.6971 49.1929C10.3651 49.0017 9.04002 48.7899 7.72174 48.5713C5.65893 48.2435 3.59612 47.8951 1.53331 47.5468C1.21228 47.4921 0.884413 47.4306 0.55655 47.3692C-0.0377034 47.2462 -0.0786854 47.1779 0.0784146 46.5359C7.81053 47.9771 15.5905 49.0768 23.4045 49.9579ZM0.0647545 1.15405C-0.0308733 0.505158 -0.0172124 0.539309 0.529227 0.375378C2.00461 -0.0686041 3.51415 0.0543439 5.01686 0.0475138C5.05784 0.0475138 5.09883 0.0680057 5.23544 0.102158C3.45951 0.464173 1.77238 0.8057 0.0647545 1.15405ZM3.34339 49.9579H0.051093V49.3227C1.16446 49.5208 2.25051 49.712 3.34339 49.9033V49.9579Z" fill="white" style="fill:white;fill:white;fill-opacity:1;"/>
</g>
</svg>
