<svg width="1140" height="204" viewBox="0 0 1140 204" fill="none" xmlns="http://www.w3.org/2000/svg">
<path d="M1140 85.0233V48.5123C1140 47.8362 1139.16 47.6108 1138.82 48.1179L1113.67 84.6853C1113.39 85.0797 1113.67 85.6995 1114.23 85.6995H1139.38C1139.72 85.6995 1140 85.3614 1140 85.0233ZM44.6344 58.3725C40.8166 51.7239 35.8759 46.5403 29.8685 42.8779C35.8759 39.1592 40.8166 33.9755 44.6344 27.3269C48.5083 33.9755 53.4489 39.1592 59.4002 42.8779C53.4489 46.5403 48.5083 51.7239 44.6344 58.3725ZM69.7306 85.6995H1.12292C0.39305 85.6995 0 85.305 0 84.5726V70.3738C0 69.6414 0.39305 69.3033 1.12292 69.3033H69.7306C76.9732 69.3033 83.149 66.7115 88.3142 61.5278C93.4795 56.3442 96.0621 50.09 96.0621 42.8779C96.0621 35.6095 93.4795 29.3553 88.3142 24.1716C83.149 18.988 76.9732 16.3961 69.7306 16.3961H1.12292C0.39305 16.3961 0 16.0581 0 15.3256V1.12688C0 0.394413 0.39305 0 1.12292 0H69.7306C77.3662 0 84.4403 1.9157 91.0653 5.7471C97.6341 9.57851 102.855 14.8185 106.617 21.3544C110.491 27.9467 112.4 35.1024 112.4 42.8779C112.4 50.5971 110.491 57.7527 106.617 64.345C102.855 70.8809 97.6341 76.1209 91.0653 79.9523C84.4403 83.7837 77.3662 85.6995 69.7306 85.6995ZM354.492 85.6995H336.077C335.74 85.6995 335.459 85.6431 335.179 85.5868C334.898 85.4741 334.617 85.305 334.393 85.0797C334.112 84.7979 333.943 84.6289 333.831 84.5162C333.719 84.4035 333.55 84.1218 333.27 83.7274C333.045 83.333 332.877 83.0513 332.821 82.9949C330.069 78.9945 326.083 73.3037 320.974 65.9227C315.865 58.5416 312.721 53.9777 311.486 52.2874L310.644 51.0478H245.573V34.6517H332.652C335.179 34.6517 337.312 33.7501 339.109 31.9471C340.849 30.1441 341.691 28.003 341.691 25.5239C341.691 23.0447 340.849 20.9037 339.109 19.1007C337.312 17.2977 335.179 16.3961 332.652 16.3961H245.573V1.12688C245.573 0.394413 245.91 0 246.64 0H332.54C337.2 0 341.467 1.18323 345.341 3.43699C349.271 5.7471 352.359 8.84603 354.604 12.7338C356.906 16.6779 358.029 20.9037 358.029 25.4676C358.029 32.0035 355.839 37.6942 351.46 42.5398C347.081 47.3854 341.691 50.2026 335.347 50.9351L330.631 51.4422L354.492 85.6995ZM599.167 85.6995H491.707C490.978 85.6995 490.585 85.305 490.585 84.5726V70.3738C490.585 69.6414 491.034 69.3033 491.82 69.3033H599.167C599.897 69.3033 600.233 69.6414 600.233 70.3738V84.5726C600.233 85.305 599.897 85.6995 599.167 85.6995ZM506.922 51.0478H491.82C491.034 51.0478 490.585 50.7097 490.585 49.9209V35.7222C490.585 34.9897 491.034 34.6517 491.82 34.6517H575.923C576.653 34.6517 576.99 34.9897 576.99 35.7222V49.9209C576.99 50.7097 576.653 51.0478 575.923 51.0478H506.922ZM600.233 1.12688V15.3256C600.233 16.0581 599.897 16.3961 599.167 16.3961H491.707C490.978 16.3961 490.585 16.0581 490.585 15.3256V1.12688C490.585 0.394413 490.978 0 491.707 0H599.167C599.897 0 600.233 0.394413 600.233 1.12688ZM811.896 70.1485C806 73.8108 801.06 78.9945 797.186 85.6995C793.368 78.9945 788.427 73.8108 782.42 70.1485C788.427 66.4861 793.368 61.3024 797.186 54.5975C801.06 61.3024 806 66.4861 811.896 70.1485ZM809.201 2.70452L867.253 85.6995H848.95C848.557 85.6995 848.221 85.6431 847.996 85.5304C847.715 85.4741 847.491 85.305 847.266 85.0797C846.985 84.7979 846.817 84.6289 846.705 84.5162C846.592 84.4035 846.368 84.1218 846.143 83.7274C845.919 83.333 845.694 83.0513 845.526 82.9949C824.079 52.1747 807.965 29.0736 797.186 13.748L794.828 16.9032C789.719 24.228 782.083 35.2714 771.809 49.9773C761.591 64.6267 753.899 75.6702 748.79 82.9949C748.734 83.0513 748.565 83.333 748.285 83.7274C748.06 84.1218 747.892 84.4035 747.779 84.5162C747.611 84.6289 747.443 84.7979 747.218 85.0797C746.937 85.305 746.713 85.4741 746.432 85.5304C746.151 85.6431 745.814 85.6995 745.477 85.6995H727.118L785.115 2.70452C786.406 0.901506 787.473 0 788.427 0H806.057C806.955 0 808.022 0.901506 809.201 2.70452ZM1139.78 1.69032C1140.28 0.95784 1139.78 0 1138.93 0H1122.26C1122.03 0 1121.81 0.0563333 1121.58 0.112688C1121.42 0.112688 1121.19 0.169025 1121.02 0.281721C1120.91 0.338061 1120.69 0.450746 1120.52 0.563441C1120.35 0.676123 1120.29 0.788822 1120.18 0.845162C1120.12 0.957843 1120.01 1.07054 1119.9 1.23957C1119.79 1.40859 1119.68 1.57763 1119.56 1.69032C1119.45 1.85935 1119.4 2.08474 1119.28 2.25377C1119.17 2.47914 1119 2.59184 1118.83 2.70452L1070.49 71.9515L1022.1 2.70452C1021.93 2.59184 1021.76 2.4228 1021.48 1.97205C1021.26 1.57763 1021.09 1.29591 1020.98 1.18323C1020.81 1.07053 1020.64 0.845166 1020.41 0.67613C1020.3 0.394413 1020.02 0.225369 1019.74 0.112688C1019.4 0.0563333 1019.07 0 1018.67 0H999.921V84.5726C999.921 85.1923 1000.43 85.6431 1001.04 85.6431H1015.14C1015.87 85.6431 1016.26 85.305 1016.26 84.5726V22.7067L1058.37 82.9949C1059.6 84.7979 1060.67 85.6431 1061.57 85.6431H1079.36C1080.26 85.6431 1081.33 84.7979 1082.56 82.9949L1139.78 1.69032ZM383.125 166.835H391.154C391.322 166.835 391.491 166.835 391.603 166.891C391.715 166.891 391.828 167.004 391.94 167.117C391.996 167.173 392.052 167.286 392.108 167.342C392.165 167.398 392.221 167.511 392.333 167.68C392.445 167.849 392.558 167.962 392.614 167.962L413.331 197.655L434.104 167.962C434.16 167.962 434.216 167.849 434.272 167.793C434.328 167.737 434.385 167.624 434.441 167.568C434.441 167.511 434.497 167.455 434.553 167.342C434.609 167.286 434.609 167.229 434.665 167.173C434.722 167.173 434.778 167.117 434.834 167.06C434.89 167.004 434.946 166.948 435.058 166.948C435.115 166.891 435.171 166.891 435.283 166.835H443.592V203.064C443.592 203.402 443.48 203.571 443.143 203.571H437.08C436.743 203.571 436.63 203.402 436.63 203.064V176.526L418.552 202.388C417.991 203.177 417.542 203.571 417.148 203.571H409.569C409.176 203.571 408.727 203.177 408.165 202.388L390.087 176.526V203.064C390.087 203.402 389.975 203.571 389.638 203.571H383.574C383.238 203.571 383.125 203.402 383.125 203.064V166.835ZM530.222 173.371C530.222 173.709 530.054 173.878 529.773 173.878H490.192V181.654H519.779C520.116 181.654 520.228 181.823 520.228 182.161V188.246C520.228 188.528 520.116 188.697 519.779 188.697H490.192V196.528H529.773C530.054 196.528 530.222 196.697 530.222 196.979V203.064C530.222 203.402 530.054 203.571 529.773 203.571H483.679C483.398 203.571 483.23 203.402 483.23 203.064V167.286C483.23 167.004 483.398 166.835 483.679 166.835H529.773C530.054 166.835 530.222 167.004 530.222 167.286V173.371ZM574.969 173.878V196.528H597.819C600.963 196.528 603.602 195.402 605.792 193.204C608.037 191.007 609.104 188.302 609.104 185.203C609.104 182.104 608.037 179.4 605.792 177.202C603.602 174.949 600.963 173.878 597.819 173.878H574.969ZM568.4 166.835H597.819C601.132 166.835 604.163 167.624 606.971 169.314C609.834 170.948 612.024 173.146 613.652 175.963C615.28 178.78 616.122 181.879 616.122 185.203C616.122 188.528 615.28 191.57 613.652 194.387C612.024 197.205 609.834 199.458 606.971 201.092C604.163 202.726 601.132 203.571 597.819 203.571H568.288C568.063 203.571 567.951 203.402 567.951 203.177V167.286C567.951 167.004 568.119 166.835 568.4 166.835ZM654.412 203.571C654.075 203.571 653.963 203.402 653.963 203.064V167.286C653.963 167.004 654.075 166.835 654.412 166.835H660.476C660.756 166.835 660.981 167.004 660.981 167.286V203.064C660.981 203.402 660.756 203.571 660.476 203.571H654.412ZM715.497 189.035H738.291L726.894 172.695L725.883 174.047L715.497 189.035ZM732.059 167.962L756.931 203.571H749.071C748.902 203.571 748.79 203.515 748.678 203.515C748.565 203.459 748.453 203.402 748.341 203.29L748.116 203.064C748.06 203.008 748.004 202.895 747.892 202.726C747.779 202.557 747.667 202.445 747.611 202.388L743.232 196.021H710.556L706.121 202.388C706.121 202.445 706.064 202.557 705.896 202.726C705.84 202.895 705.728 203.008 705.672 203.064C705.615 203.121 705.559 203.177 705.447 203.29C705.335 203.402 705.222 203.459 705.11 203.515C704.998 203.515 704.885 203.571 704.717 203.571H696.857L721.729 167.962C722.29 167.229 722.739 166.835 723.132 166.835H730.712C731.048 166.835 731.554 167.229 732.059 167.962Z" fill="white" style="fill:white;fill:white;fill-opacity:1;"/>
</svg>
