<svg width="15" height="15" viewBox="0 0 15 15" fill="none" xmlns="http://www.w3.org/2000/svg">
<path fill-rule="evenodd" clip-rule="evenodd" d="M7.5 14.1667C11.1819 14.1667 14.1667 11.1819 14.1667 7.5C14.1667 3.8181 11.1819 0.833333 7.5 0.833333C3.8181 0.833333 0.833333 3.8181 0.833333 7.5C0.833333 11.1819 3.8181 14.1667 7.5 14.1667ZM7.5 15C11.6421 15 15 11.6421 15 7.5C15 3.35786 11.6421 0 7.5 0C3.35786 0 0 3.35786 0 7.5C0 11.6421 3.35786 15 7.5 15Z" fill="white" style="fill:white;fill-opacity:1;"/>
<path fill-rule="evenodd" clip-rule="evenodd" d="M6.59999 1C6.93135 1 7.19997 1.27299 7.19997 1.60975V7.57428L11.6682 9.84474C11.9646 9.99534 12.0847 10.3616 11.9365 10.6628C11.7883 10.964 11.4279 11.0861 11.1316 10.9355L6 8.32797V1.60975C6 1.27299 6.26862 1 6.59999 1Z" fill="white" style="fill:white;fill-opacity:1;"/>
</svg>
