<svg width="40" height="40" viewBox="0 0 40 40" fill="none" xmlns="http://www.w3.org/2000/svg">
<g clip-path="url(#clip0_4935_21592)">
<path d="M39.2411 19.9995C39.2411 9.3726 30.6263 0.757812 19.9995 0.757812C9.3726 0.757812 0.757812 9.3726 0.757812 19.9995C0.757812 30.6263 9.3726 39.2411 19.9995 39.2411C30.6263 39.2411 39.2411 30.6263 39.2411 19.9995Z" fill="white" stroke="white" style="fill:white;fill-opacity:1;stroke:white;stroke-opacity:1;" stroke-miterlimit="10"/>
<path d="M15.2573 15.7129H11.2734V28.5744H15.2573V15.7129Z" fill="black" style="fill:black;fill-opacity:1;"/>
<path d="M13.2465 14.0238C14.5509 14.0238 15.6025 12.9621 15.6025 11.6476C15.6025 10.3332 14.5509 9.27148 13.2465 9.27148C11.9422 9.27148 10.8906 10.3332 10.8906 11.6476C10.8906 12.9621 11.9422 14.0238 13.2465 14.0238Z" fill="black" style="fill:black;fill-opacity:1;"/>
<path d="M21.6306 21.8202C21.6306 20.0103 22.4598 18.9385 24.0573 18.9385C25.5235 18.9385 26.2211 19.9699 26.2211 21.8202V28.5745H30.1847V20.4249C30.1847 16.9769 28.2333 15.3086 25.5032 15.3086C22.7732 15.3086 21.6306 17.432 21.6306 17.432V15.7029H17.8086V28.5644H21.6306V21.8101V21.8202Z" fill="black" style="fill:black;fill-opacity:1;"/>
</g>
<defs>
<clipPath id="clip0_4935_21592">
<rect width="40" height="40" fill="white" style="fill:white;fill-opacity:1;"/>
</clipPath>
</defs>
</svg>
