<svg width="40" height="40" viewBox="0 0 40 40" fill="none" xmlns="http://www.w3.org/2000/svg">
<circle cx="20" cy="20" r="19.5" fill="white" stroke="white" style="fill:white;fill-opacity:1;stroke:white;stroke-opacity:1;"/>
<path fill-rule="evenodd" clip-rule="evenodd" d="M17.6155 22.4753C17.3554 22.2152 17.3554 21.7934 17.6155 21.5333L21.5338 17.6151C21.7939 17.3549 22.2157 17.3549 22.4758 17.6151C22.7359 17.8752 22.7359 18.2969 22.4758 18.5571L18.5575 22.4753C18.2974 22.7354 17.8757 22.7354 17.6155 22.4753Z" fill="black" style="fill:black;fill-opacity:1;"/>
<path fill-rule="evenodd" clip-rule="evenodd" d="M20.7043 14.4437C22.1859 12.962 24.5882 12.962 26.0699 14.4437C27.5515 15.9253 27.5515 18.3276 26.0699 19.8093L24.2818 21.5973C24.0345 21.8446 23.6336 21.8446 23.3863 21.5973C23.139 21.35 23.139 20.949 23.3863 20.7017L25.1743 18.9137C26.1614 17.9267 26.1614 16.3263 25.1743 15.3392C24.1872 14.3522 22.5869 14.3522 21.5998 15.3392L19.8118 17.1273C19.5645 17.3746 19.1636 17.3746 18.9163 17.1273C18.6689 16.88 18.6689 16.479 18.9163 16.2317L20.7043 14.4437ZM17.1298 18.9137C17.3771 19.161 17.3771 19.562 17.1298 19.8093L15.3418 21.5973C14.3547 22.5844 14.3547 24.1847 15.3418 25.1718C16.3288 26.1588 17.9292 26.1588 18.9163 25.1718L20.7043 23.3838C20.9516 23.1365 21.3525 23.1365 21.5998 23.3838C21.8471 23.6311 21.8471 24.032 21.5998 24.2793L19.8118 26.0673C18.3301 27.549 15.9279 27.549 14.4462 26.0673C12.9645 24.5857 12.9645 22.1834 14.4462 20.7017L16.2342 18.9137C16.4815 18.6664 16.8825 18.6664 17.1298 18.9137Z" fill="black" style="fill:black;fill-opacity:1;"/>
</svg>
