<svg width="33" height="43" viewBox="0 0 33 43" fill="none" xmlns="http://www.w3.org/2000/svg">
<path d="M16.8812 1C6.88226 1 1.88281 9.23159 1.88281 15.4644C1.88281 21.6972 5.89958 29.3457 15.7694 41.4776C16.3352 42.1741 17.4304 42.1741 17.9962 41.4776C27.866 29.3457 31.8828 21.4737 31.8828 15.4644C31.8828 9.45511 26.8834 1 16.8812 1ZM16.8812 21.9175C13.3673 21.9175 10.5185 19.1283 10.5185 15.6879C10.5185 12.2476 13.3673 9.45835 16.8812 9.45835C20.395 9.45835 23.2438 12.2476 23.2438 15.6879C23.2438 19.1283 20.395 21.9175 16.8812 21.9175Z" stroke="white" style="stroke:white;stroke-opacity:1;" stroke-width="2" stroke-linecap="round" stroke-linejoin="round"/>
</svg>
