<svg width="24" height="48" viewBox="0 0 24 48" fill="none" xmlns="http://www.w3.org/2000/svg">
<path fill-rule="evenodd" clip-rule="evenodd" d="M5.75971 12.0107C4.3979 13.0799 3.54848 14.6378 3.54848 16.7907C3.54848 18.1644 4.17777 19.3304 5.60759 20.2805C7.10132 21.2731 9.42424 21.9767 12.5143 22.1642C15.9566 22.373 18.6884 23.2032 20.5891 24.7769C22.5681 26.4155 23.4296 28.6785 23.4296 31.1908C23.4296 33.9155 21.9688 36.4809 19.8906 38.3073C17.788 40.1552 14.899 41.3974 11.71 41.3974C5.5957 41.3974 0 37.1576 0 31.1908C0 30.1803 0.794354 29.3611 1.77424 29.3611C2.75413 29.3611 3.54848 30.1803 3.54848 31.1908C3.54848 34.4811 6.85275 37.7381 11.71 37.7381C14.0068 37.7381 16.0904 36.8391 17.589 35.5221C19.112 34.1836 19.8811 32.5605 19.8811 31.1908C19.8811 29.6085 19.3807 28.4693 18.3675 27.6304C17.2759 26.7266 15.3851 26.004 12.3059 25.8172C8.87441 25.6091 5.87941 24.8144 3.68559 23.3566C1.42787 21.8564 0 19.6203 0 16.7907C0 13.4841 1.37557 10.8536 3.6102 9.09911C5.79308 7.38527 8.6862 6.58398 11.71 6.58398C17.8219 6.58398 23.4296 10.8218 23.4296 16.7907C23.4296 17.8012 22.6352 18.6203 21.6553 18.6203C20.6754 18.6203 19.8811 17.8012 19.8811 16.7907C19.8811 13.5023 16.5696 10.2434 11.71 10.2434C9.24801 10.2434 7.17326 10.9009 5.75971 12.0107Z" fill="#F1F0EF" style="fill:#F1F0EF;fill:color(display-p3 0.9451 0.9412 0.9373);fill-opacity:1;"/>
<path fill-rule="evenodd" clip-rule="evenodd" d="M11.7039 38.6133C12.6838 38.6133 13.4782 39.4325 13.4782 40.443V46.1694C13.4782 47.1799 12.6838 47.9991 11.7039 47.9991C10.724 47.9991 9.92969 47.1799 9.92969 46.1694V40.443C9.92969 39.4325 10.724 38.6133 11.7039 38.6133Z" fill="#F1F0EF" style="fill:#F1F0EF;fill:color(display-p3 0.9451 0.9412 0.9373);fill-opacity:1;"/>
<path fill-rule="evenodd" clip-rule="evenodd" d="M11.7039 0C12.6838 0 13.4782 0.819178 13.4782 1.82968V8.10006C13.4782 9.11057 12.6838 9.92975 11.7039 9.92975C10.724 9.92975 9.92969 9.11057 9.92969 8.10006V1.82968C9.92969 0.819178 10.724 0 11.7039 0Z" fill="#F1F0EF" style="fill:#F1F0EF;fill:color(display-p3 0.9451 0.9412 0.9373);fill-opacity:1;"/>
</svg>
